<?xml version="1.0" standalone="no"?>
<!DOCTYPE svg PUBLIC "-//W3C//DTD SVG 1.1//EN" "http://www.w3.org/Graphics/SVG/1.1/DTD/svg11.dtd" >
<!--
2013-9-30: Created.
-->
<svg>
<metadata>
Created by iconfont
</metadata>
<defs>

<font id="iconfont" horiz-adv-x="1024" >
  <font-face
    font-family="iconfont"
    font-weight="500"
    font-stretch="normal"
    units-per-em="1024"
    ascent="896"
    descent="-128"
  />
    <missing-glyph />
    
    <glyph glyph-name="x" unicode="x" horiz-adv-x="1001"
d="M281 543q-27 -1 -53 -1h-83q-18 0 -36.5 -6t-32.5 -18.5t-23 -32t-9 -45.5v-76h912v41q0 16 -0.5 30t-0.5 18q0 13 -5 29t-17 29.5t-31.5 22.5t-49.5 9h-133v-97h-438v97zM955 310v-52q0 -23 0.5 -52t0.5 -58t-10.5 -47.5t-26 -30t-33 -16t-31.5 -4.5q-14 -1 -29.5 -0.5
t-29.5 0.5h-32l-45 128h-439l-44 -128h-29h-34q-20 0 -45 1q-25 0 -41 9.5t-25.5 23t-13.5 29.5t-4 30v167h911zM163 247q-12 0 -21 -8.5t-9 -21.5t9 -21.5t21 -8.5q13 0 22 8.5t9 21.5t-9 21.5t-22 8.5zM316 123q-8 -26 -14 -48q-5 -19 -10.5 -37t-7.5 -25t-3 -15t1 -14.5
t9.5 -10.5t21.5 -4h37h67h81h80h64h36q23 0 34 12t2 38q-5 13 -9.5 30.5t-9.5 34.5q-5 19 -11 39h-368zM336 498v228q0 11 2.5 23t10 21.5t20.5 15.5t34 6h188q31 0 51.5 -14.5t20.5 -52.5v-227h-327z" />
    

    
    <glyph glyph-name="anzhuo" unicode="&#58899;" d="M799.867 453.302q15.848 0 26.873-9.991t11.025-24.461v-203.263q0-13.78-11.025-23.772t-26.873-9.991h-12.403q-15.848 0-26.873 9.991t-11.025 23.772v203.263q0 14.469 11.025 24.461t26.873 9.991h12.403zM241.066 453.302q15.847 0 26.183-9.991t10.336-24.461v-203.263q0-13.78-10.336-23.772t-26.183-9.991h-12.402q-15.848 0-26.873 9.991t-11.025 23.772v203.263q0 14.469 11.025 24.461t26.873 9.991h12.402zM621.41 613.155q12.403-5.512 25.838-15.159t25.838-22.738 21.705-28.595 13.436-32.729h-391.367q11.025 36.517 34.797 59.946t47.888 37.208l-35.14 55.122q-1.378 1.377-0.344 5.167t7.236 7.924q5.512 4.823 10.336 4.479t6.202-1.722l35.829-56.5q19.293 8.957 40.653 13.78t44.097 4.823q46.853 0 87.506-19.293l36.517 57.188q1.377 1.378 5.168 1.378t11.369-4.133q6.891-3.445 7.924-6.202t-0.344-4.133zM429.171 553.899q8.957 0 15.159 6.202t6.202 15.159-6.202 15.158-15.159 6.202-15.158-6.202-6.202-15.158 6.202-15.159 15.158-6.202zM598.673 556.654q8.957 0 15.158 6.202t6.202 15.159-6.202 15.159-15.158 6.202-15.158-6.202-6.202-15.159 6.202-15.159 15.158-6.202zM708.227 470.526l0.689-310.062q0-15.158-9.991-25.493t-24.461-10.336h-9.646v-96.463q0-13.78-9.991-24.116t-24.461-10.336h-19.981q-13.78 0-23.772 10.336t-9.991 24.116v96.463h-126.78v-96.463q0-13.78-9.992-24.116t-24.461-10.336h-19.982q-13.78 0-23.772 10.336t-9.991 24.116v96.463h-7.58q-14.469 0-24.461 10.336t-9.991 25.493v310.062h388.612z"  horiz-adv-x="1024" />

    
    <glyph glyph-name="shanchu" unicode="&#58881;" d="M364.747 138.449c13.555 0 24.523 10.969 24.523 24.523v269.754c0 13.555-10.968 24.523-24.523 24.523s-24.523-10.97-24.523-24.523v-269.755c0-13.555 10.969-24.522 24.523-24.522zM511.888 138.449c13.556 0 24.523 10.969 24.523 24.523v269.754c0 13.555-10.969 24.523-24.523 24.523s-24.523-10.97-24.523-24.523v-269.755c-0.001-13.555 10.967-24.522 24.523-24.522zM659.027 138.449c13.555 0 24.523 10.969 24.523 24.523v269.754c0 13.555-10.969 24.523-24.523 24.523s-24.523-10.97-24.523-24.523v-269.755c0-13.555 10.968-24.522 24.523-24.522zM781.642 702.484h-101.566c-10.969 42.197-49.046 73.569-94.62 73.569h-147.14c-45.574 0-83.652-31.373-94.62-73.569h-101.565c-54.099 0-98.092-44.018-98.092-98.093v-24.524h24.523v-24.523h49.046v-465.941c0-54.076 43.994-98.093 98.093-98.093h392.372c54.101 0 98.093 44.017 98.093 98.093v465.942h49.046v24.523h24.523v24.524c0 54.075-43.992 98.092-98.092 98.092zM438.317 727.007h147.14c18.056 0 33.719-9.938 42.222-24.523h-231.581c8.502 14.585 24.164 24.523 42.221 24.523zM757.119 89.403c0-27.062-22.008-49.046-49.046-49.046h-392.372c-27.037 0-52.447 21.985-52.447 49.046l3.4 465.941h490.464v-465.941zM193.084 604.391c0 27.062 22.010 49.046 49.046 49.046h539.513c27.039 0 49.046-21.985 49.046-49.046h-637.605z"  horiz-adv-x="1024" />

    
    <glyph glyph-name="xiajiantou" unicode="&#58904;" d="M663.831 204.178c-12.608 12.608-33.009 12.608-45.618 0l-73.978-73.979v533.22c0 17.812-14.423 32.259-32.259 32.259-17.835 0-32.259-14.447-32.259-32.259v-533.222l-73.98 73.979c-12.607 12.608-33.008 12.608-45.616 0-12.609-12.608-12.609-33.008 0-45.617l151.879-151.877 151.88 151.878c12.608 12.609 12.608 33.011 0 45.618h-0.049z"  horiz-adv-x="1024" />

    
    <glyph glyph-name="weizhang" unicode="&#59002;" d="M736.475 307.492h135.215v-44.873h-135.215v44.873zM556.064 127.082h45.164v-135.231h-45.164v135.231zM707.276 188.256l135.215-135.216-31.988-32.003-135.216 135.232 31.989 31.987zM150.052 443.029h135.215v-45.179h-135.215v45.179zM420.819 713.491h44.859v-135.231h-44.859v135.231zM314.467 517.087l-135.215 135.215 31.987 32.004 135.216-135.231-31.989-31.988zM839.671 611.521l-69.952 69.968c-21.663 21.342-49.575 32.004-77.797 32.004-28.25 0-56.499-10.661-77.824-32.004l-115.146-115.146c-39.22-39.541-42.345-101.665-9.437-144.637l46.144 45.807c-3.125 6.587-5.025 13.481-5.025 21.019 0 12.547 4.719 24.159 13.482 32.631l115.146 115.145c8.488 8.778 20.099 13.497 32.661 13.497 12.225 0 23.839-4.719 32.602-13.497l69.982-69.967c8.762-8.794 13.48-20.391 13.48-32.631 0-12.547-4.719-24.16-13.48-32.632l-115.147-115.146c-8.456-8.795-20.099-13.497-32.632-13.497-7.537 0-14.432 1.883-21.018 5.025l-45.808-46.128c19.427-15.060 43.297-22.582 66.827-22.582 28.221 0 56.471 10.661 77.796 32.005l115.146 115.146c42.682 42.665 42.682 112.633-0.001 155.622zM486.083 237.83c3.125-6.588 5.026-13.481 5.026-21.019 0-12.547-4.719-23.838-13.482-32.632l-115.147-115.146c-8.487-8.779-20.099-13.497-32.661-13.497-12.225 0-23.838 4.719-32.603 13.497l-69.982 69.967c-8.762 8.795-13.48 20.391-13.48 32.632 0 12.547 4.719 24.159 13.48 32.631l115.146 115.147c8.456 8.795 20.099 13.498 32.632 13.498 7.537 0 14.431-1.884 21.018-5.025l45.807 46.128c-19.425 15.060-43.295 22.582-66.827 22.582-28.22 0-56.471-10.661-77.797-32.003l-115.144-115.146c-42.681-42.666-42.681-112.635 0-155.621l69.952-69.967c21.663-21.342 49.576-32.005 77.797-32.005 28.25 0 56.499 10.661 77.826 32.005l115.145 115.145c39.219 39.542 42.344 101.665 9.437 144.637l-46.144-45.808z"  horiz-adv-x="1024" />

    
    <glyph glyph-name="shezhi" unicode="&#58906;" d="M511.9936 217.48479999999995c-91.36106667 0-165.67893333 74.44693333-165.67893333 165.952 0 91.504 74.31893333 165.94346667 165.67893333 165.94346667s165.68746667-74.4384 165.68746667-165.94346667c0-91.50506667-74.32746667-165.952-165.68746667-165.952zM511.9936 494.66666667c-61.23413333 0-111.05493333-49.90186667-111.05493333-111.232 0-61.33973333 49.8208-111.2416 111.05493333-111.2416 61.24373333 0 111.0656 49.90186667 111.0656 111.2416 0 61.33013333-49.82186667 111.232-111.0656 111.232zM574.5568 730.7552000000001v-36.5312c0-26.82346667 15.99253333-50.7776 40.72746667-61.04426667 8.0448-3.34293333 16.53333333-5.0304 25.24266666-5.0304 17.62453333 0 34.18986667 6.8736 46.64213334 19.35146667l23.3824 23.41546667 88.46933333-88.61226667-23.37493333-23.41546667c-18.9344-18.9664-24.54613333-47.23093333-14.29653334-72.00533333 10.24213333-24.78293333 34.16426667-40.7904 60.93973334-40.7904h35.344v-125.3248h-35.344c-26.7744 0-50.6976-16.00853333-60.93973334-40.78293333-10.2496-24.78293333-4.63786667-53.04746667 14.29653334-72.01386667l23.37493333-23.41653333-88.46933333-88.61226667-23.3824 23.41653333c-12.45333333 12.47573333-29.01866667 19.35146667-46.64213334 19.35146667-8.70933333 0-17.1968-1.68853333-25.24266666-5.03146667-24.73386667-10.256-40.72746667-34.2208-40.72746667-61.0432v-35.392h-125.11466667v35.392c0 26.82346667-15.98506667 50.78613333-40.71786666 61.0432-8.0448 3.34293333-16.54186667 5.03146667-25.2512 5.03146667-17.61386667 0-34.1888-6.87466667-46.64106667-19.35146667l-23.38346667-23.41653333-88.46933333 88.61226667 23.376 23.41653333c18.9344 18.9664 24.54506667 47.22986667 14.29653333 72.00426667-10.24213333 24.78293333-34.16426667 40.7904-60.9408 40.7904h-35.33653333v125.3248h35.33653333c26.77546667 0 50.69866667 16.00853333 60.9408 40.7904 10.24853333 24.7744 4.63786667 53.03893333-14.29653333 72.00533333l-23.376 23.41546667 88.46933333 88.61226666 23.38346667-23.41546666c12.45333333-12.4768 29.02826667-19.35146667 46.64106667-19.35146667 8.70933333 0 17.19786667 1.68746667 25.24266666 5.0304 24.7424 10.2656 40.72853333 34.2208 40.72853334 61.0432v36.53226667h125.11466666M574.5568 785.4656h-125.11466667c-30.0448 0-54.62293333-28.03626667-54.62293333-58.12693333v-33.1136c0-4.6048-2.768-8.7424-7.0048-10.5024-1.4016-0.58133333-2.87573333-0.8608-4.3424-0.8608-2.9504 0-5.85066667 1.14666667-8.02133333 3.32586666l-23.38346667 23.41546667c-10.61866667 10.6432-24.61866667 15.95946667-38.62186667 15.95946667s-27.99573333-5.31626667-38.62186666-15.95946667l-88.4768-88.61226667c-21.23626667-21.27573333-21.23626667-56.1024 0-77.37173333l23.38346666-23.41546667c3.24373333-3.2512 4.21013333-8.14293333 2.4576-12.3872-1.7536-4.2432-5.8912-7.01333333-10.47893333-7.01333333h-33.06666667c-30.03626667 0-56.8928-24.61866667-56.8928-54.7104v-125.3248c0-30.09066667 26.85653333-54.7104 56.8928-54.7104h33.06666667c4.5888 0 8.72533333-2.768 10.47893333-7.01333333s0.78613333-9.136-2.4576-12.3872l-23.38346666-23.41653334c-21.23626667-21.27573333-21.23626667-56.09493333 0-77.37066666l88.4768-88.61226667c10.6272-10.63466667 24.61866667-15.95946667 38.62186666-15.95946667s28.00426667 5.32693333 38.62186667 15.95946667l23.38346667 23.41546667c2.17066667 2.17066667 5.07093333 3.32586667 8.02133333 3.32586666 1.46666667 0 2.9408-0.27946667 4.3424-0.8608 4.23573333-1.76106667 7.0048-5.9072 7.0048-10.5024v-33.11466666c0-30.08426667 24.57813333-56.98773333 54.62293333-56.98773334h125.11466667c30.04373333 0 54.62293333 26.90346667 54.62293333 56.98773334v33.11466666c0 4.59626667 2.76053333 8.7424 7.0048 10.5024 1.4016 0.5824 2.87573333 0.8608 4.3424 0.8608 2.9504 0 5.85066667-1.15626667 8.02133334-3.32586666l23.376-23.41546667c10.6272-10.63466667 24.62826667-15.95946667 38.6304-15.95946667 13.9936 0 28.00426667 5.32693333 38.62293333 15.95946667l88.4768 88.61226667c21.23626667 21.2768 21.23626667 56.096 0 77.37066666l-23.38346667 23.41653334c-3.24373333 3.2512-4.21013333 8.14293333-2.45866666 12.3872 1.7536 4.24426667 5.8912 7.01333333 10.47893333 7.01333333h33.06773333c30.03626667 0 56.8928 24.61866667 56.8928 54.7104v125.32586667c0 30.09066667-26.85653333 54.7104-56.8928 54.7104h-33.06773333c-4.5888 0-8.72533333 2.76906667-10.47893333 7.01333333s-0.78613333 9.136 2.45866666 12.3872l23.38346667 23.41546667c21.23626667 21.2672 21.23626667 56.096 0 77.37173333l-88.4768 88.61226667c-10.61866667 10.6432-24.62826667 15.95946667-38.62293333 15.95946666-14.00213333 0-28.00426667-5.31626667-38.6304-15.95946666l-23.376-23.41546667c-2.17066667-2.1792-5.07093333-3.32586667-8.02133334-3.32586667-1.4656 0-2.9408 0.27946667-4.3424 0.8608-4.24426667 1.76106667-7.0048 5.89973333-7.0048 10.5024v33.1136c0 30.09173333-24.57813333 58.1248-54.62293333 58.1248v0z"  horiz-adv-x="1024" />

    
    <glyph glyph-name="yonghu1" unicode="&#59099;" d="M193.828 11.378c-0.469 6.388-0.71 12.829-0.71 19.321 0 159.205 143.050 288.727 318.882 288.727 175.831 0 318.883-129.522 318.883-288.727 0-6.492-0.243-12.934-0.71-19.321h54.266c0.384 6.412 0.583 12.852 0.583 19.321 0 46.659-9.998 91.91-29.72 134.493-18.953 40.926-46.033 77.632-80.484 109.098-54.572 49.842-122.994 82.302-197.233 94.351 88.566 28.095 152.965 111.515 152.965 209.791 0 121.26-98.042 219.914-218.552 219.914-120.509 0-218.552-98.653-218.552-219.914 0-98.276 64.401-181.695 152.965-209.791-74.239-12.048-142.661-44.509-197.233-94.351-34.452-31.465-61.53-68.173-80.484-109.098-19.72-42.583-29.72-87.833-29.72-134.493 0-6.469 0.2-12.91 0.583-19.321h54.267zM349.201 578.432c0 90.327 73.031 163.812 162.799 163.812s162.799-73.485 162.799-163.812c0-90.328-73.030-163.813-162.799-163.813s-162.799 73.485-162.799 163.813z"  horiz-adv-x="1024" />

    
    <glyph glyph-name="cheliang1" unicode="&#59261;" d="M509.109 683.53c0.946 0 1.839 0 2.838-0.025 0.999 0.025 1.945 0.025 2.891 0.025h-5.729zM789.193 574.522c-7.936 40.679-43.518 56.974-81.886 73.215-37.842 16.057-128.4 35.241-195.307 35.767-66.907-0.526-157.519-19.709-195.308-35.767-38.368-16.267-73.95-32.533-81.938-73.215l-18.764-225.529v-310.778h49.564v-48.747c0-59.419 82.044-59.419 82.044 0v48.747h328.753v-48.747c0-59.419 82.096-59.419 82.096 0v48.747h49.563v310.778l-18.815 225.529zM390.169 626.609h243.556c23.966 0 23.966-36.633 0-36.633h-243.556c-23.966-0.001-23.966 36.633 0 36.633zM268.128 356.459l22.39 163.562c3.049 19.867 9.669 32.954 35.004 32.954h372.902c25.28 0 31.903-13.087 34.953-32.954l22.391-163.562c2.103-15.714-2.366-31.22-23.599-31.22h-440.441c-21.233 0-25.701 15.504-23.599 31.22zM358.582 162.781c0-9.356-7.463-16.976-16.661-16.976h-67.38c-9.197 0-16.608 7.621-16.608 16.976v29.117c0 9.356 7.411 16.976 16.608 16.976h67.38c9.197 0 16.661-7.621 16.661-16.976v-29.116zM766.015 162.781c0-9.356-7.462-16.976-16.608-16.976h-67.433c-9.198 0-16.662 7.621-16.662 16.976v29.117c0 9.356 7.463 16.976 16.662 16.976h67.433c9.146 0 16.608-7.621 16.608-16.976v-29.116z"  horiz-adv-x="1024" />

    
    <glyph glyph-name="Area" unicode="&#58952;" d="M865.14 438.364h-30.996v-0.296c-0.512 0.027-0.916 0.296-1.429 0.296h-63.583c-14.905 0-26.953-12.075-26.953-26.953v-0.216c0-14.878 12.048-26.953 26.953-26.953h63.583c0.512 0 0.916 0.269 1.429 0.296v-322.602h-644.611v322.279h62.451c14.878 0 26.953 12.075 26.953 26.953v0.216c0 14.878-12.075 26.953-26.953 26.953h-90.536c-14.878 0-26.953-12.075-26.953-26.953v-377.559c0-14.905 12.075-26.953 26.953-26.953h703.692c14.905 0 26.953 12.048 26.953 26.953v377.586c0 14.878-12.075 26.953-26.953 26.953zM608.276 446.909l-100.993-174.926-100.993 174.926h-62.396l163.417-283.008 163.39 283.008zM507.283 730.267c-104.201 0-188.672-84.471-188.672-188.672 0-38.139 11.401-73.555 30.861-103.231h61.884l-19.164 33.853h0.081c-12.426 20.215-19.729 43.852-19.729 69.378 0 74.417 60.321 134.766 134.766 134.766s134.766-60.348 134.766-134.766c0-25.524-7.304-49.162-19.73-69.378h0.081l-19.083-33.853h61.804c19.46 29.676 30.861 65.119 30.861 103.231-0.054 104.201-84.525 188.672-188.726 188.672zM512 616.471c-44.661 0-80.859-36.198-80.859-80.859s36.198-80.859 80.859-80.859c44.634 0 80.859 36.198 80.859 80.859s-36.225 80.859-80.859 80.859zM512 508.658c-14.878 0-26.953 12.075-26.953 26.953s12.075 26.953 26.953 26.953c14.905 0 26.953-12.075 26.953-26.953s-12.048-26.953-26.953-26.953z"  horiz-adv-x="1024" />

    
    <glyph glyph-name="dingdan" unicode="&#59068;" d="M537.429 590.474c53.437 0 96.754 44.64 96.754 99.73 0 30.991-13.709 58.678-35.23 76.978 1.841-6.278 3.14-12.808 3.14-19.712 0-37.644-29.596-68.146-66.104-68.146-36.517 0-66.115 30.502-66.115 68.146 0 5.515 0.8 10.802 2.010 15.929-19.132-18.219-31.203-44.22-31.203-73.194 0.001-55.091 43.318-99.731 96.748-99.731zM534.349 717.618c35.607 0 64.472 29.749 64.472 66.46 0 36.699-28.865 66.448-64.472 66.448-35.608 0-64.474-29.749-64.474-66.448-0-36.711 28.865-66.46 64.474-66.46zM78.809 121.594l155.81-62.177c-12.567 25.91-62.832 417.070-62.832 417.070l-92.978-354.893zM712.094-83.064l10.061 152.839-349.316-36.268 339.255-116.571zM817.639 758.851l-169.355-25.76c10.194-18.833 16.055-40.505 16.055-63.613 0-72.249-56.807-130.824-126.908-130.824-70.084 0-126.901 58.576-126.901 130.824 0 9.582 1.066 18.901 2.95 27.904l-209.025-31.788c7.536-202.060 98.011-603.591 98.011-603.591l650.886 113.984c-45.239 46.636-135.713 582.864-135.713 582.864zM327.385 439.709l276.938 41.051 8.23-30.819-276.923-41.063-8.245 30.831zM386.848 206.045l-10.060 35.15 340.838 49.995 10.070-35.149-340.848-49.996zM366.201 307.267l-13.441 34.878 439.032 59.52 13.447-34.875-439.038-59.523z"  horiz-adv-x="1024" />

    
    <glyph glyph-name="cuowu" unicode="&#58931;" d="M512 777.75c-217.125 0-393.75-176.625-393.75-393.75 0-217.069 176.625-393.75 393.75-393.75 217.069 0 393.75 176.681 393.75 393.75 0 217.125-176.681 393.75-393.75 393.75zM512 46.5c-186.356 0-337.5 151.144-337.5 337.5s151.144 337.5 337.5 337.5 337.5-151.144 337.5-337.5-151.144-337.5-337.5-337.5zM651.219 562.987l-139.219-139.162-139.219 139.162-39.769-39.769 139.219-139.219-139.219-139.219 39.769-39.769 139.219 139.219 139.219-139.219 39.769 39.769-139.219 139.219 139.219 139.219z"  horiz-adv-x="1024" />

    
    <glyph glyph-name="dingdan3" unicode="&#58890;" d="M774.471 699.495h-78.742v52.493h-70.698c-22.733 31.251-64.582 52.495-113.033 52.495s-90.298-21.245-113.032-52.495h-70.701v-52.493h-78.743c-57.982 0-104.987-47.006-104.987-104.993v-524.943c0-57.986 47.005-104.987 104.987-104.987h524.946c57.984 0 104.989 47.001 104.989 104.987v524.943c0.001 57.987-47.003 104.993-104.988 104.993zM380.765 699.495h58.326c0 28.989 32.643 52.493 72.908 52.493 40.267 0 72.908-23.503 72.908-52.493h58.328v-104.993h-262.47v104.993zM826.966 69.559c0-28.99-23.502-52.495-52.494-52.495h-524.946c-28.991 0-52.492 23.505-52.492 52.495v524.943c0 28.989 23.501 52.495 52.492 52.495h78.743v-104.989h367.462v104.989h78.742c28.992 0 52.494-23.505 52.494-52.495v-524.943zM695.728 174.55h-367.461c-14.495 0-26.246-11.752-26.246-26.25 0-14.494 11.75-26.246 26.246-26.246h367.461c14.498 0 26.248 11.753 26.248 26.246 0 14.498-11.75 26.25-26.248 26.25zM695.728 437.022h-367.461c-14.495 0-26.246-11.752-26.246-26.252 0-14.492 11.75-26.246 26.246-26.246h367.461c14.498 0 26.248 11.754 26.248 26.246 0 14.499-11.75 26.252-26.248 26.252zM695.728 305.786h-367.461c-14.495 0-26.246-11.754-26.246-26.25 0-14.494 11.75-26.246 26.246-26.246h367.461c14.498 0 26.248 11.752 26.248 26.246 0 14.496-11.75 26.25-26.248 26.25z"  horiz-adv-x="1024" />

    
    <glyph glyph-name="time" unicode="&#58900;" d="M656.5775 346.44895833h-135.946875v187.69875c0 14.4796875-10.6134375 26.205-23.715 26.205-13.1025 0-23.728125-11.724375-23.728125-26.205v-208.9359375c0-0.455625 0.0103125-0.9075 0.031875-1.3584375-0.020625-0.375-0.031875-0.751875-0.031875-1.130625 0-6.4003125 2.8059375-12.2025 7.3603125-16.47 4.258125-4.4859375 10.02-7.246875 16.36875-7.246875 0.3759375 0 0.7490625 0.01125 1.1203125 0.031875 0.4490625-0.020625 0.9009375-0.031875 1.3546875-0.031875h157.1840625c14.4796875 0 26.205 10.6134375 26.205 23.7140625s-11.724375 23.7290625-26.2040625 23.7290625zM512 738.01458333c-192.928125 0-349.318125-156.3890625-349.318125-349.318125s156.39-349.3190625 349.318125-349.3190625c192.916875 0 349.318125 156.3890625 349.318125 349.318125s-156.40125 349.3190625-349.318125 349.3190625zM512 91.13114583000004c-164.338125 0-297.5671875 133.23-297.5671875 297.5671875 0 164.35125 133.23 297.5671875 297.5671875 297.5671875s297.5671875-133.2178125 297.5671875-297.5671875c0-164.338125-133.2309375-297.5671875-297.5671875-297.5671875z"  horiz-adv-x="1024" />

    
    <glyph glyph-name="7tian" unicode="&#58980;" d="M835.59765333 779.50862222h-647.19303111c-39.73006222 0-71.90983111-32.17976889-71.90983111-71.90983111v-647.19303111c0-39.69365333 32.17976889-71.90983111 71.90983111-71.90983111h647.19303111c39.73006222 0 71.90983111 32.21504 71.90983112 71.90983111v647.19303111c0 39.73006222-32.17976889 71.90983111-71.90983112 71.90983111zM655.82193778 563.77685333l-143.82193778-395.50862222h-35.95491555l143.82193777 395.50862222h-251.68668444v35.95491556h287.6416v-35.95491556z"  horiz-adv-x="1024" />

    
    <glyph glyph-name="gongju" unicode="&#58932;" d="M768.088 561.057h-129.64v43.211c0 23.856-19.359 43.215-43.211 43.215h-172.855c-23.875 0-43.216-19.359-43.216-43.215v-43.211h-129.64c-47.73 0-86.427-38.699-86.427-86.43v-107.846h691.417v107.846c0.005 47.732-38.694 86.43-86.425 86.43zM595.237 561.057h-172.856v21.606c0 11.923 9.665 21.607 21.605 21.607h129.641c11.933 0 21.609-9.683 21.609-21.607v-21.606zM508.786 258.557c23.853 0 43.211 19.371 43.211 43.215 0 7.912-2.267 15.212-5.982 21.607h-74.428c-3.727-6.395-5.992-13.693-5.992-21.607 0-23.844 19.317-43.215 43.192-43.215zM592.141 323.38c1.813-6.928 3.093-14.083 3.093-21.607 0-47.727-38.698-86.425-86.429-86.425-47.729 0-86.425 38.699-86.425 86.425 0 7.523 1.256 14.678 3.047 21.607h-262.327v-237.67c0-47.732 38.698-86.432 86.427-86.432h518.563c47.732 0 86.425 38.702 86.425 86.432v237.67h-262.373z"  horiz-adv-x="1024" />

    
    <glyph glyph-name="erweima" unicode="&#59157;" d="M432.729 772.49h-249.235c-30.399 0-55.136-24.737-55.136-55.14v-249.228c0-30.403 24.737-55.14 55.136-55.14h249.234c30.399 0 55.136 24.737 55.136 55.14v249.228c0.001 30.403-24.736 55.14-55.135 55.14zM432.729 460.132h-249.235c-4.403 0-7.988 3.585-7.988 7.991v249.228c0 4.406 3.586 7.991 7.988 7.991h249.234c4.405 0 7.988-3.586 7.988-7.991v-249.228h0.001c0-4.406-3.584-7.991-7.988-7.991zM320.353 631.437h-24.484c-14.748 0-26.706-11.96-26.706-26.706v-24.484c0-14.747 11.958-26.705 26.706-26.705h24.484c14.748 0 26.705 11.958 26.705 26.705v24.484c0 14.745-11.957 26.706-26.705 26.706zM872.293 77.343h-24.483c-14.748 0-26.706-11.96-26.706-26.706v-24.484c0-14.749 11.957-26.706 26.706-26.706h24.483c14.748 0 26.706 11.957 26.706 26.706v24.484c-0.001 14.745-11.958 26.706-26.706 26.706zM432.729 358.956h-249.235c-30.399 0-55.136-24.737-55.136-55.14v-249.227c0-30.404 24.737-55.14 55.136-55.14h249.234c30.399 0 55.136 24.737 55.136 55.14v249.227c0.001 30.404-24.736 55.14-55.135 55.14zM432.729 46.596h-249.235c-4.403 0-7.988 3.587-7.988 7.993v249.228c0 4.406 3.586 7.993 7.988 7.993h249.234c4.405 0 7.988-3.587 7.988-7.993v-249.228h0.001c0-4.406-3.584-7.993-7.988-7.993zM320.353 217.903h-24.484c-14.748 0-26.706-11.96-26.706-26.706v-24.484c0-14.748 11.958-26.706 26.706-26.706h24.484c14.748 0 26.705 11.957 26.705 26.706v24.484c0 14.744-11.957 26.706-26.705 26.706zM594.57 412.982h249.234c30.4 0 55.137 24.737 55.137 55.14v249.228c0 30.403-24.738 55.14-55.137 55.14h-249.234c-30.4 0-55.137-24.737-55.137-55.14v-249.228c0-30.403 24.737-55.14 55.137-55.14zM586.582 717.35c0 4.406 3.585 7.991 7.988 7.991h249.234c4.407 0 7.989-3.586 7.989-7.991v-249.228c0-4.406-3.582-7.991-7.989-7.991h-249.234c-4.403 0-7.988 3.585-7.988 7.991v249.228zM706.947 553.542h24.484c14.747 0 26.705 11.958 26.705 26.705v24.484c0 14.745-11.957 26.706-26.705 26.706h-24.484c-14.749 0-26.706-11.96-26.706-26.706v-24.484c0-14.747 11.956-26.705 26.706-26.705zM800.025 150.125h-114.757v23.572c0 0.001 0 0.002 0 0.002 0 0.407-0.010 0.812-0.031 1.214-0.631 12.456-10.93 22.36-23.543 22.36-0.011 0-0.022-0.001-0.035-0.001h-70.611c-1.528 0-3.022-0.151-4.469-0.428v32.219h47.51c13.019 0 23.573 10.553 23.573 23.573 0 13.018-10.554 23.573-23.573 23.573h-47.51v27.608c0 4.406 3.586 7.993 7.988 7.993h126.188c4.405 0 7.988-3.587 7.988-7.993v-64.427h0.002v-36.862c0-13.019 10.553-23.573 23.573-23.573s23.573 10.554 23.573 23.573v101.288c0.001 30.404-24.736 55.14-55.135 55.14h-126.188c-30.399 0-55.136-24.737-55.136-55.14v-249.227c0-30.404 24.737-55.14 55.136-55.14h102.614c13.019 0 23.573 10.553 23.573 23.573s-10.554 23.573-23.573 23.573h-102.614c-4.403 0-7.988 3.587-7.988 7.993v95.966c1.448-0.278 2.941-0.428 4.469-0.428h47.072v-55.86c0-13.019 10.554-23.573 23.573-23.573s23.573 10.553 23.573 23.573v8.713h114.757c13.019 0 23.573 10.553 23.573 23.573s-10.553 23.574-23.573 23.573zM851.796 335.384v-176.113c0-13.019 10.553-23.573 23.573-23.573s23.573 10.554 23.573 23.573v176.113c0 13.019-10.553 23.573-23.573 23.573s-23.573-10.553-23.573-23.573z"  horiz-adv-x="1024" />

    
    <glyph glyph-name="yonghu" unicode="&#58884;" d="M764.328 282.428c21.84 0 27.352 5.566 27.352 27.352 0 12.612-8.951 22.931-18.105 30.162l-1.738 1.738c-30.439 23.542-62.211 45.974-98.735 59.917 46.455 39.871 76.025 98.937 76.025 164.958 0 120.020-97.348 217.348-217.367 217.348s-217.329-97.329-217.329-217.348c0-66.020 29.57-125.087 76.006-164.958-148.258-56.885-253.762-200.243-253.853-368.64v-0.074c0.092-21.747 9.635-37.966 31.345-37.966 21.895 0 23.449 15.719 23.505 37.448 0 174.352 104.782 339.052 340.346 335.149 71.494-1.184 155.268-28.683 206.346-71.235 13.87-11.558 16.921-11.707 23.116-13.481l3.088-0.37zM531.778 409.752c-112.253 0.221-166.215 80.518-166.215 156.803 0 76.247 61.657 165.513 166.437 165.513 121.759 0 166.437-90.19 166.437-166.437 0-76.302-70.866-158.763-166.659-155.877v0zM604.234 177.905c0-21.821 17.697-32.252 39.52-32.252h210.82c21.821 0 39.52 10.43 39.52 32.252 0 21.859-17.698 30.162-39.52 30.162h-210.82c-21.821 0-39.52-8.303-39.52-30.162v0zM854.574 49.359h-210.82c-21.821 0-39.52-7.73-39.52-29.552 0-21.859 17.697-29.792 39.52-29.792h210.82c21.821 0 39.52 7.953 39.52 29.792 0 21.821-17.697 29.552-39.52 29.552v0zM854.574 49.359z"  horiz-adv-x="1024" />

    
    <glyph glyph-name="xiaoxi" unicode="&#59121;" d="M782.908 253.195c0 65.65 0 262.596 0 262.596 0 145.015-121.298 262.593-270.908 262.593-149.608 0-270.908-117.578-270.908-262.593 0 0 0-196.944 0-262.596 0-65.647-67.727-131.293-67.727-131.293h677.271c-0.001 0-67.729 65.647-67.729 131.293zM512.001-9.394c56.118 0 101.591 29.394 101.591 65.647h-203.182c0-36.253 45.471-65.647 101.592-65.647z"  horiz-adv-x="1024" />

    
    <glyph glyph-name="weizhang1" unicode="&#58989;" d="M872.925 651.325l-93.625 93.6c-40.166 40.166-110.288 35.125-150.455-4.988l-138.755-138.755c-40.166-40.166-40.166-105.275 0-145.44l5.195-5.168 36.36 36.36-5.168 5.168c-20.083 20.083-20.083 52.663 0 72.72l143.742 143.742c20.083 20.083 52.663 20.083 72.72 0.025l93.42-93.395c20.083-20.083 20.083-52.663 0-72.745l-143.742-143.742c-20.083-20.058-52.663-20.058-72.745 0.025l-4.988 4.963-36.36-36.36 5.195-5.168c40.166-40.166 105.3-40.166 145.466-0.025l138.728 138.755c40.166 40.088 45.18 110.237 5.014 150.428zM244.675 23.075l-93.6 93.625c-40.166 40.166-35.152 110.288 5.014 150.48l138.728 138.728c40.166 40.166 105.275 40.166 145.44 0l5.195-5.168-36.36-36.36-5.195 5.168c-20.083 20.083-52.637 20.083-72.72 0l-143.742-143.742c-20.083-20.083-20.083-52.663 0-72.72l93.395-93.42c20.083-20.083 52.663-20.083 72.745 0l143.742 143.742c20.083 20.083 20.083 52.663 0 72.745l-4.988 4.988 36.36 36.36 5.168-5.195c40.166-40.166 40.166-105.3 0.025-145.466l-138.728-138.728c-40.14-40.192-110.288-45.205-150.48-5.040zM723.212 209.153l146.005-146.005-36.365-36.365-146.005 146.005 36.365 36.365zM585.312 120.12h51.428v-148.422h-51.428v148.422zM775.88 310.688h148.422v-51.428h-148.422v51.428zM300.793 558.816l-146.005 146.005 36.383 36.383 146.005-146.005-36.383-36.383zM99.697 508.74h148.448v-51.428h-148.448v51.428zM387.286 796.303h51.428v-148.448h-51.428v148.448z"  horiz-adv-x="1024" />

    
    <glyph glyph-name="jiayou" unicode="&#58922;" d="M372.781 550.632c-13.972 0-25.313-11.323-25.313-25.313s11.341-25.313 25.313-25.313h168.75c13.972 0 25.313 11.323 25.313 25.313s-11.341 25.313-25.313 25.313h-168.75zM827.377 533.402c-21.853 19.575-58.826 52.194-70.132 63.5-6.362 6.328-20.959 10.075-30.679-0.135-9.298-9.737-5.248-22.511 1.586-29.042 8.927-8.454 27.844-24.384 40.601-37.564-0.135-0.034-0.203-0.152-0.338-0.203 0.962-0.962 1.553-2.295 1.553-3.763s-0.591-2.802-1.553-3.763c0.101-0.034 0.169-0.135 0.304-0.169-10.479-11.609-25.076-23.524-34.712-34.172-0.101-0.101-0.067-0.203-0.169-0.304-2.666-2.244-4.489-5.501-4.489-9.264 0-6.767 5.501-12.268 12.268-12.268 0.354 0 0.658 0.169 0.996 0.203l0.101-0.135h48.87c3.662 0 4.607-3.662 4.607-3.662v-350.578c0-19.541-10.682-25.701-21.549-25.701-10.901 0-22.578 6.193-22.578 25.701v286.604c0 26.005-2.835 37.75-32.164 39.336-7.222 0.354-36.063 0.101-51.705 0v0.101h-25.211l0.034-0.186c-0.034 0-0.034 0-0.034 0-13.972 0-25.313-11.323-25.313-25.313 0-0.81 0.169-1.569 0.236-2.362l-0.271-0.084v-340.048c0-16.048-13.011-29.076-29.076-29.076h-264.347c-16.065 0-29.076 13.011-29.076 29.076v514.519c0 16.065 13.011 29.092 29.076 29.092h264.364c15.879 0 29.801-12.977 30.088-34.712-0.591-2.109-0.995-4.303-0.995-6.615 0-13.989 11.341-25.313 25.312-25.313s25.313 11.323 25.313 25.313c0 1.181-0.203 2.295-0.354 3.425l0.271 0.101v44.803c0 24.097-19.507 43.622-43.605 43.622h-336.875c-24.097 0-43.622-19.524-43.622-43.622v-579.352h-24.907c-9.956 0-17.955-8.049-17.955-17.922v-13.872c0-9.907 8.016-18.816 17.955-18.816h473.209c9.922 0 17.955 8.909 17.955 18.816v13.872c0 9.889-8.049 17.922-17.955 17.922h-24.233v354.51c8.826-0.017 21.195 0 30.088 0 10.716 0 11.627-10.631 11.627-10.631v-275.923c0-70.436 58.236-71.111 64.733-71.111 8.674 0 63.416 0 63.416 70.235 0 13.112 0 405.405 0 405.405s0.422 9.552-10.665 19.524z"  horiz-adv-x="1024" />

    
    <glyph glyph-name="liebiao" unicode="&#59098;" d="M840.402 602.139h-246.301c-15.139 0-27.369 12.261-27.369 27.369 0 15.103 12.231 27.364 27.369 27.364h246.301c15.133 0 27.369-12.261 27.369-27.364 0-15.109-12.236-27.369-27.369-27.369v0zM840.402 465.305h-246.301c-15.139 0-27.369 12.261-27.369 27.369 0 15.103 12.231 27.364 27.369 27.364h246.301c15.133 0 27.369-12.261 27.369-27.364 0-15.109-12.236-27.369-27.369-27.369v0zM840.402 246.368h-246.301c-15.139 0-27.369 12.236-27.369 27.369s12.231 27.364 27.369 27.364h246.301c15.133 0 27.369-12.231 27.369-27.364s-12.236-27.369-27.369-27.369v0zM840.402 109.533h-246.301c-15.139 0-27.369 12.236-27.369 27.369s12.231 27.364 27.369 27.364h246.301c15.133 0 27.369-12.231 27.369-27.364s-12.236-27.369-27.369-27.369v0zM402.529 410.572h-164.199c-45.266 0-82.103 36.835-82.103 82.102v164.199c0 45.266 36.835 82.102 82.103 82.102h164.199c45.266 0 82.102-36.835 82.102-82.103v-164.199c0-45.266-36.835-82.102-82.102-82.102v0zM238.33 684.241c-15.080 0-27.369-12.29-27.369-27.369v-164.199c0-15.080 12.29-27.369 27.369-27.369h164.199c15.080 0 27.369 12.29 27.369 27.369v164.199c0 15.080-12.29 27.369-27.369 27.369h-164.199zM402.529 27.43h-164.199c-45.266 0-82.103 36.839-82.103 82.103v164.204c0 45.263 36.835 82.102 82.103 82.102h164.199c45.266 0 82.102-36.839 82.102-82.102v-164.204c0-45.262-36.835-82.103-82.102-82.103v0zM238.33 301.101c-15.080 0-27.369-12.26-27.369-27.364v-164.204c0-15.104 12.29-27.364 27.369-27.364h164.199c15.080 0 27.369 12.26 27.369 27.364v164.204c0 15.104-12.29 27.364-27.369 27.364h-164.199zM238.33 301.101z"  horiz-adv-x="1024" />

    
    <glyph glyph-name="pingjiaxingxing" unicode="&#59114;" d="M365.10487531 597.05330999c-7.36012969-13.72253625-18.43390219-22.63393406-30.09671437-23.84942999l-173.26428656-25.13304c-66.78320063-11.11214625-93.13941188-94.37409469-45.51154313-143.92545844l124.58784938-125.43495468c10.02808125-10.43676375 14.78549531-24.50466563 12.33147937-37.25154375l-30.16482844-177.82407563c-10.69291031-69.48281062 58.74289219-122.11080844 117.60378469-88.70625751l154.07633625 83.25811126c12.49264969 7.20471563 25.18388531 7.20471563 37.17767344 0.28492688l154.933035-83.74929844c58.50497344-33.19829156 127.93789781 19.42970625 117.30446718 88.58442l-30.13892625 177.69360375c-1.27977188 13.8933 3.21765844 28.31616187 12.48497532 37.95282844l124.11776812 124.95528c47.86290938 49.7902425 21.50669812 133.05123094-44.87741343 144.10006031l-172.88726251 25.09754344c-13.75515375 2.90107312-25.67795063 11.81247094-30.57734812 23.28437343l-76.51004625 163.41560437c-29.27551125 63.66915188-115.0998825 63.66915188-144.43966969-0.13526812L365.10487531 597.05330999 365.10487531 597.05330999zM365.10487531 597.05330999"  horiz-adv-x="1024" />

    
    <glyph glyph-name="message" unicode="&#58992;" d="M511.999-35.883c-28.734 0-56.729 2.604-83.97 7.1L231.233-148.186 231.233 50.593C128.618 122.645 62.772 233.11 62.772 357.174c0 217.08 201.13 393.059 449.229 393.059 248.084 0 449.229-175.98 449.229-393.059C961.229 140.083 760.083-35.883 511.999-35.883zM511.999 694.083c-217.087 0-393.074-150.852-393.074-336.908 0-114.166 66.422-214.897 167.762-275.819l-1.769-130.234 132.172 79.456c30.448-6.498 62.117-10.311 94.91-10.311 217.102 0 393.073 150.825 393.073 336.907C905.073 543.23 729.102 694.083 511.999 694.083zM736.614 301.023c-31.011 0-56.153 25.128-56.153 56.149 0 31.011 25.143 56.152 56.153 56.152 31.012 0 56.153-25.143 56.153-56.152C792.768 326.151 767.624 301.023 736.614 301.023zM511.999 301.023c-31.011 0-56.153 25.128-56.153 56.149 0 31.011 25.144 56.152 56.153 56.152 31.012 0 56.154-25.143 56.154-56.152C568.154 326.151 543.011 301.023 511.999 301.023zM287.386 301.023c-31.011 0-56.153 25.128-56.153 56.149 0 31.011 25.143 56.152 56.153 56.152 31.011 0 56.152-25.143 56.152-56.152C343.538 326.151 318.396 301.023 287.386 301.023z"  horiz-adv-x="1024" />

    
    <glyph glyph-name="pingjia1" unicode="&#58976;" d="M113.17991828 256.00414053c46.02922277 10.00844199 91.90160139 8.83845834 137.59876371-3.50429647 45.69857631-12.33992959 86.56602691-35.85545825 122.59104688-70.55365034 17.34485757-17.34485757 32.02333914-36.86011661 44.03403483-58.54295467 12.0106957-21.67718489 21.1798019-44.19653218 27.5186221-67.54391172 6.3388216-23.34879213 9.67355494-47.0381217 10.008442-71.05951172 0.33629965-24.01432564-1.83834238-47.03246992-6.49990636-69.04454187-45.37358023-10.0098546-91.07215653-7.34347996-137.10703246 8.00336171-46.03346196 15.34401646-86.72711166 40.69930011-122.08659813 76.05737395-36.02925916 34.69112637-60.21314791 74.89304345-72.55449009 120.59020715C104.33580679 166.10196628000006 103.17006369 211.30315819999998 113.17991828 256.00414053L113.17991828 256.00414053 113.17991828 256.00414053zM912.76581486 256.00414053c10.00844199-44.70098233 8.84411011-89.90217425-3.49723209-135.59933657-12.34558137-45.69716231-36.19882226-85.89766681-71.5568961-120.59020716-17.34627018-17.34485757-37.68956144-31.86225439-61.04400538-43.52958606-23.34879213-11.67863523-48.03430307-21.01589056-74.05653421-28.02165827-26.01516539-7.00576771-52.87249315-11.68004784-80.55785317-14.01860122-27.68535863-2.32442321-54.87333427-2.83028459-81.56251153-1.50063013l-58.04415767 0L482.44662471 289.03072541999995c-38.69280859 4.00168084-74.71782857 14.67848294-108.0736487 32.0247531-26.02081854 13.34317534-49.87405945 30.02249939-71.55830872 50.0351428-21.67859887 20.01829659-40.19485134 42.36384157-55.53321599 67.05217911-15.35108221 24.67985916-27.35612475 51.3690378-36.03773754 80.05764222-8.67030919 28.69001838-13.00122391 58.70545201-13.00122391 90.06325761 0 42.03884687 8.33966133 82.73249519 25.01191961 122.09224988 32.02899229-8.0033617 61.55269331-20.18079392 88.56686667-36.52947012 27.02406431-16.34161043 51.20653907-36.18610471 72.56014325-59.54054863 6.00252196 45.36792845 20.84208827 86.89667339 44.52718003 124.591888 23.68932957 37.68956144 53.53802805 69.21975675 89.56869981 94.56797601 37.35891497-25.34821926 67.88727572-57.37721018 91.56388915-96.07143136 23.68932957-38.69280859 38.19401161-81.06230194 43.53523784-127.09576389 21.34653842 23.35303131 45.70422809 43.53382524 73.05328708 60.55086015 27.34905901 17.00855792 57.04232451 29.51804924 89.06425104 37.52706408 15.34542905-38.03151287 23.01814427-78.05821507 23.01814427-120.09140876 0-30.6894455-4.16983137-60.37564526-12.51514447-89.06425105-8.33966133-28.69001838-20.34329129-55.37778305-36.01936819-80.05905618-15.6803161-24.68127177-34.19798254-47.0381217-55.53886779-67.0521791-21.35360281-20.01829659-45.03728059-36.69055487-71.05809914-50.03514282l0-0.99618137c-18.68016379-9.34432108-37.86336374-16.85312496-57.53970889-22.51934729-19.67634516-5.6718741-40.19485134-9.17475796-61.54845414-10.51430336l0-269.19076763c8.00901486 27.34482121 20.34894444 53.53944065 37.02826713 78.55136027 16.67932267 25.02322318 36.03067313 48.20386618 58.04415766 69.54899062 17.34627018 17.34627018 37.19783022 32.697351 59.54054863 46.03487594 22.35119678 13.34458931 45.53749156 24.01997743 69.55746899 32.02899229 24.01432564 8.0033617 48.36495092 13.00828967 73.05328709 15.00912942C866.40029245 262.0052485 890.08397023 260.67276748999996 912.76581486 256.00414053L912.76581486 256.00414053 912.76581486 256.00414053zM912.76581486 256.00414053"  horiz-adv-x="1024" />

    
    <glyph glyph-name="shenfengzheng2" unicode="&#58958;" d="M924.463518 632.286965 98.459964 632.286965c-19.292392 0-34.932604-15.640212-34.932604-34.932604l0-593.297584c0-19.291368 15.640212-34.930557 34.932604-34.930557l826.003554 0c19.291368 0 34.93158 15.639189 34.93158 34.930557L959.395098 597.354362C959.395098 616.646754 943.754886 632.286965 924.463518 632.286965zM542.804075 444.447856l331.934948 0 0-64.523549L542.804075 379.924307 542.804075 444.447856zM542.804075 318.97312l331.934948 0 0-64.523549L542.804075 254.449571 542.804075 318.97312zM334.969563 540.276389c91.898013 0 92.042299-70.304206 92.042299-109.872387 0-39.534412-36.799114-112.987331-92.042299-113.075335-55.184857-0.088004-92.042299 73.540923-92.042299 113.075335C242.928287 469.94353 243.101225 540.276389 334.969563 540.276389zM179.4393 259.551776c23.686469 18.326391 91.808986 48.943712 91.808986 48.943712l43.00649-81.811284 7.866155 19.846-12.150738 24.443715 24.242124 24.474414 24.240077-24.474414-12.119015-24.443715 6.556323-19.378349 44.257993 81.343633c0 0 21.702278-9.784854 44.809555-21.559015l0.030699 0 0-101.68389L145.378553 185.252583C145.378553 185.251559 155.81423 241.100542 179.4393 259.551776zM877.543905 51.879969l-732.165352 0L145.378553 116.404542l732.165352 0L877.543905 51.879969z"  horiz-adv-x="1024" />

    
    <glyph glyph-name="xiazai" unicode="&#58930;" d="M487.38 160.079c10.234-10.234 26.845-10.234 37.079 0l242.532 238.418c10.234 10.234 11.383 28.105 0 37.042-28.105 22.1-51.206 0-51.206 0l-193.626-189.51c-8.973-8.973-23.508-8.973-32.444 0l-179.832 187.359c0 0-20.652 23.768-51.243-0.037-11.421-8.862-10.234-26.809 0-37.042l228.74-236.229zM511.518 312.882c19.54 0 35.336 15.832 35.336 35.336v264.298c0 19.54-15.833 35.374-35.336 35.374-19.54 0-35.374-15.832-35.374-35.374v-264.298c0-19.504 15.833-35.336 35.374-35.336zM881.788 171.464c0 8.787-3.522 16.723-9.27 22.47s-13.682 9.27-22.47 9.27c-17.539 0-31.702-14.201-31.702-31.74v-98.667l-613.655-0.037v98.704c0 17.539-14.201 31.74-31.74 31.74s-31.739-14.165-31.739-31.74l0.037-130.332c0-0.037-0.037-0.037-0.037-0.037 0-8.787 3.56-16.723 9.307-22.47v0c2.076-2.077 5.525-1.928 8.121-3.337 4.561-2.522 8.713-5.933 14.312-5.933h677.134c17.539 0 31.74 14.201 31.74 31.739v0l-0.037 130.369z"  horiz-adv-x="1024" />

    
    <glyph glyph-name="daoru" unicode="&#59021;" d="M1063.682-133.875h-973.357v483.427h59.73v-423.697h853.896v423.697h59.73v-483.427zM544.857 697.159h59.73v-464.21h-59.73v464.21zM780.3 232.462l-205.495-205.495-205.495 205.495h410.991z"  horiz-adv-x="1182" />

    
    <glyph glyph-name="shangchuan" unicode="&#58969;" d="M731.881 230.753c24.809 0.27 47.587 10.273 63.539 26.429v0c16.357 16.763 26.361 39.136 26.361 64.483 0 22.239-7.637 42.383-21.022 58.537-13.25 15.885-32.242 26.968-54.007 30.823-13.86 2.635-23.794 14.465-23.794 28.050v0.136c0 53.872-21.698 102.878-57.253 138.161-35.15 35.285-84.224 57.251-137.891 57.251-39.949 0-76.921-11.896-107.677-31.837-31.837-21.427-56.845-51.1-72.189-86.519-4.394-10.748-14.466-17.168-25.551-17.574-34.878-1.757-65.904-17.303-88.886-41.502-22.577-23.794-36.365-56.238-36.365-91.927 0-37.313 15.006-70.973 39.204-95.172h0.405c24.199-24.469 57.658-39.339 94.563-39.339h93.686c15.749 0 28.659-12.846 28.659-28.459 0-15.478-12.911-28.321-28.659-28.321h-93.686c-52.656 0-100.647 21.089-135.052 56.237-34.474 34.405-55.9 82.194-55.9 135.053 0 50.424 19.738 96.727 52.047 130.997 28.592 30.078 67.255 50.829 110.65 57.726 20.007 39.069 49.817 71.717 86.047 95.577 39.745 26.362 87.602 41.706 138.703 41.706 69.351 0 132.485-28.255 178.245-73.812 40.694-40.895 67.731-95.511 72.936-156.211 25.417-8.515 48.058-24.603 65.025-44.747 21.698-25.687 34.608-58.942 34.608-94.836 0-40.892-16.56-77.8-43.125-104.634h-0.204c-23.183-23.317-54.479-38.596-89.29-42.448-2.096-0.203-4.26-0.608-6.423-0.608h-135.998c-15.616 0-28.188 12.842-28.188 28.321 0 15.615 12.57 28.459 28.188 28.459h128.292zM497.6 474.902v0h-0.403l-136.067-135.998c-6.76-6.488-6.76-17.237 0-24.265 6.691-6.42 17.506-6.42 24.198 0l107.067 107.068v-389.678c0-9.329 7.639-17.171 17.102-17.171s17.17 7.842 17.17 17.171v389.678l107.271-107.068c6.557-6.42 17.237-6.42 24.132 0 6.42 7.028 6.42 17.778 0 24.265l-137.486 136.809v0.406l-0.677 0.404-0.337 0.404c-0.608 0.405-1.351 0.811-1.823 1.419h-0.744l-0.405 0.405c-0.879 0.472-1.419 0.609-2.366 0.609v0l-1.69 0.405-1.351 0.404h-3.043l-1.623-0.404-1.419-0.405h-0.473c-0.676 0-1.418-0.136-2.162-0.609l-0.473-0.405h-0.541c-0.678-0.608-1.421-1.014-1.892-1.419l-0.338-0.404-0.81-0.404v-0.406l-0.809-0.81zM509.363 480.172v0 0z"  horiz-adv-x="1024" />

    
    <glyph glyph-name="siji" unicode="&#58943;" d="M366.030 45.146c-46.752 37.061-88.033 87.053-115.397 140.272-8.452 16.657-15.667 33.823-21.886 51.479-1.99-0.498-4.47-0.498-6.459-0.498-20.396 0-38.302 11.439-50.739 29.845v0.248c-10.448 15.917-16.909 37.303-16.909 61.179 0 23.625 6.46 45.519 16.909 61.185 1.99 3.231 3.979 5.47 6.469 8.451v121.369c0 73.124 29.843 140.272 77.595 188.272 48.251 48.251 114.899 78.086 188.013 78.086h141.763c73.117 0 139.772-30.336 187.522-78.086l0.499-0.249c48.242-48.25 78.087-115.398 78.087-188.023v-121.608c1.99-2.74 3.979-4.979 5.977-8.209 10.44-15.666 17.406-37.561 17.406-61.185 0-23.877-6.966-45.262-17.406-61.179v-0.248c-12.438-18.407-30.343-29.845-50.74-29.845-1.991 0-3.979 0-6.469 0.498-6.218-17.656-13.426-34.821-21.885-51.479v0c-26.857-53.22-68.147-103.212-115.15-140.272-95.253-74.608-202.19-74.608-297.202-0.002v0zM676.91 487.591v0c36.314-10.197 71.127-23.376 104.459-39.543v70.628c0 53.72-21.885 102.968-57.699 138.283v0.499c-35.32 35.313-84.312 57.449-138.28 57.449h-141.763c-53.959 0-102.71-22.136-138.274-57.949-35.563-35.315-57.697-84.563-57.697-138.283v0-71.127c33.323 16.665 68.146 29.844 104.451 40.041 105.949 29.345 218.857 29.096 324.806 0v0zM815.683 369.955v0l-79.083-101.971c-6.71-8.7-19.399-10.939-28.356-4.471-133.054 79.336-254.421 79.336-386.977 0-3.479-2.238-7.46-3.737-12.437-3.737h-0.498c-6.959 0-13.428 3.737-16.909 9.207l-78.095 100.971h-3.73c-0.749-0.991-1.74-2.24-2.739-3.979h-0.493c-5.967-9.2-9.947-22.636-9.947-38.302 0-14.918 3.979-28.845 10.439-38.044h-0.493c4.721-6.719 10.44-11.197 15.918-11.197 1.489 0 2.48 0.248 3.979 0.748v-0.249c0.741 0.249 1.989 0.741 2.98 1.491 2.49 1.988 4.479 3.23 7.46 3.978 10.947 2.988 22.886-3.479 25.865-14.917 6.469-22.138 14.926-44.024 25.376-64.17 24.367-47.75 62.169-94.26 103.951-127.335 79.835-62.427 165.387-62.427 245.224 0 41.781 33.075 79.835 79.584 103.959 127.335v0c10.447 20.145 19.148 42.032 25.865 64.17 2.979 11.438 14.427 17.905 25.865 14.917 2.488-0.749 4.97-1.991 6.96-3.978 0.997-0.749 2.238-1.242 3.487-1.491v0.249c0.991-0.499 2.48-0.748 3.478-0.748 5.72 0 11.189 4.478 15.917 11.197 6.469 9.199 9.947 23.126 9.947 38.044 0 15.666-3.478 29.103-9.947 38.302-0.999 1.24-1.989 2.737-3.23 3.979h-3.741zM665.972 447.050v0c-98.74 27.114-204.189 27.114-302.422 0-41.781-11.937-82.075-27.854-119.378-48l70.128-90.773c135.544 76.104 264.868 76.104 400.414 0l70.635 90.773c-37.802 20.145-77.596 36.062-119.378 48v0z"  horiz-adv-x="1024" />

    
    <glyph glyph-name="bf-cut-off" unicode="&#58983;" d="M654.696 67.020c0-15.581-14.668-28.216-32.768-28.216h-423.25c-18.097 0-32.768 12.634-32.768 28.216v28.219c0 15.582 14.672 28.216 32.768 28.216h423.25c18.099 0 32.768-12.633 32.768-28.216v-28.219zM609.64 104.356c0-18.097-14.67-32.768-32.768-32.768h-333.14c-18.097 0-32.768 14.672-32.768 32.768v592.537c0 18.098 14.671 32.768 32.768 32.768h333.14c18.098 0 32.767-14.671 32.767-32.768v-592.537zM563.219 650.471c0 18.098-14.667 32.768-32.767 32.768h-248.49c-18.097 0-32.767-14.671-32.767-32.768v-502.44c0-18.097 14.671-32.767 32.768-32.767h248.49c18.099 0 32.767 14.672 32.767 32.768v502.44zM606.226 459.325h109.226v-58.702h-109.226v58.702zM660.84 415.633h54.612v-226.644h-54.612v226.644zM660.84 216.768h150.187v-55.084h-150.187v55.084zM756.413 614.972h54.613v-425.981h-54.613v425.981zM756.413 631.357h106.496v-215.721h-106.497v215.721zM422.381 292.667c4.62-4.62 4.62-12.113 0-16.734l-83.026-83.026c-4.619-4.62-12.113-4.62-16.734 0v0c-4.62 4.621-4.62 12.114 0 16.734l83.027 83.026c4.621 4.621 12.112 4.621 16.733 0v0zM481.84 352.122c4.619-4.62 4.62-12.113 0-16.735l-83.030-83.025c-4.619-4.621-12.112-4.621-16.733 0v0c-4.621 4.62-4.621 12.113 0 16.734l83.027 83.026c4.623 4.621 12.114 4.62 16.736 0v0zM325.202 349.539c4.619 4.622 12.113 4.623 16.734 0l83.026-83.025c4.62-4.62 4.62-12.113 0-16.734v0c-4.621-4.62-12.114-4.62-16.734 0l-83.026 83.026c-4.622 4.621-4.62 12.113 0 16.733v0zM379.498 295.245c4.62 4.622 12.113 4.623 16.734 0l83.025-83.025c4.62-4.62 4.62-12.113 0-16.734v0c-4.621-4.62-12.114-4.62-16.733 0l-83.026 83.026c-4.622 4.621-4.621 12.113 0 16.733v0zM498.366 448.403c0-18.098-14.67-32.768-32.767-32.768h-122.879c-18.097 0-32.767 14.671-32.767 32.768v150.186c0 18.098 14.671 32.768 32.767 32.768h122.879c18.099 0 32.767-14.671 32.767-32.768v-150.186z"  horiz-adv-x="1024" />

    
    <glyph glyph-name="rizhi" unicode="&#58954;" d="M359.909 568.745c16.875 0 30.512 13.636 30.512 30.512v122.153c0 16.875-13.689 30.512-30.512 30.512-16.875 0-30.512-13.636-30.512-30.512v-122.1c0-16.928 13.636-30.564 30.512-30.564zM512.522 568.745c16.875 0 30.512 13.636 30.512 30.512v122.153c0 16.875-13.636 30.512-30.512 30.512s-30.512-13.689-30.512-30.512v-122.1c0-16.928 13.689-30.564 30.512-30.564zM420.986 693.407h30.512v-61.024h-30.512v61.024zM573.651 693.407h30.512v-61.024h-30.512v61.024zM878.773 109.285v495.823c0.104 50.627-41.014 91.589-91.536 91.589h-61.024v-61.024h61.024c16.824 0 30.617-13.689 30.617-30.512v-495.875c0-16.824-13.793-30.564-30.617-30.564h-549.429c-16.771 0-30.512 13.742-30.512 30.564h-0.471l0.471 495.823c0 16.824 13.689 30.512 30.512 30.512h61.024v61.077h-61.024c-50.523 0-91.536-40.962-91.536-91.589v-495.823c0-50.731 41.014-91.589 91.536-91.589h549.429c49.060 0 88.768 38.506 91.171 87.043 0.053 0.261 0.365 0.575 0.365 0.836v2.717c0 0.365 0.104 0.679 0.104 1.046h-0.104zM665.188 568.745c16.824 0 30.512 13.636 30.512 30.512v122.153c0 16.875-13.689 30.512-30.512 30.512s-30.512-13.636-30.512-30.512v-122.1c0-16.928 13.532-30.564 30.512-30.564zM328.874 446.174h366.303c16.719 0 30.512 13.689 30.512 30.512 0 16.875-13.793 30.512-30.512 30.512h-366.303c-16.875 0-30.512-13.636-30.512-30.512 0-16.824 13.636-30.512 30.512-30.512zM695.178 356.57h-366.303c-16.875 0-30.512-13.689-30.512-30.512s13.636-30.512 30.512-30.512h366.303c16.719 0 30.512 13.689 30.512 30.512s-13.793 30.512-30.512 30.512zM695.178 200.038h-366.303c-16.875 0-30.512-13.689-30.512-30.407 0-16.875 13.636-30.617 30.512-30.617h366.303c16.719 0 30.512 13.742 30.512 30.617 0 16.771-13.793 30.407-30.512 30.407z"  horiz-adv-x="1024" />

    
    <glyph glyph-name="shouye" unicode="&#58991;" d="M939.175 411.657l-381.454 376.588c-1.927 2.29-5.951 6.025-11.568 9.731-10.062 6.628-20.758 10.002-31.783 10.002-11.855 0-22.821-3.405-32.597-10.093-6.478-4.459-9.942-8.466-11.433-10.454l-380.731-375.804c-6.523-6.417-10.107-14.973-10.107-24.071 0-9.069 3.585-17.625 10.107-24.042 11.99-11.9 29.495-8.495 46.17 7.923l25.593 25.306 354.068 342.966 2.154-2.109 375.429-369.146c11.508-7.532 21.842-11.539 30.217-11.539 6.236 0 11.449 2.169 15.937 6.598 6.507 6.417 10.093 14.943 10.123 24.042 0.001 9.098-3.584 17.655-10.122 24.102zM796.885 431.119c-15.726 0-28.59-12.684-28.681-28.26v-351.311c0-19.191-15.815-34.797-35.278-34.797h-87.459v195.825c0 48.143-39.617 87.308-88.317 87.308h-85.531c-48.7 0-88.317-39.165-88.317-87.308v-195.825h-87.459c-19.462 0-35.309 15.605-35.309 34.797v351.221c-0.030 15.636-12.864 28.35-28.621 28.35-15.742 0-28.606-12.714-28.651-28.319v-355.469c0-48.143 39.617-87.308 88.317-87.308h148.993v248.306c0 19.161 15.847 34.736 35.309 34.736h77.020c19.478 0 35.294-15.575 35.294-34.736v-248.307h149.009c48.686 0 88.333 39.165 88.333 87.308v355.5c-0.122 15.575-12.956 28.289-28.652 28.289z"  horiz-adv-x="1024" />

    
    <glyph glyph-name="cemian" unicode="&#59253;" d="M835.687 50.838l-59.449 193.569c-5.647 18.389-21.827 30.366-41.032 30.366h-87.289v-21.508h50.227c16.854 0 31.057-10.132 36.012-25.696l30.707-142.281c7.456-23.406-10.661-47.101-36.018-47.101h-439.078c-25.355 0-43.473 23.696-36.018 47.101l30.708 142.281c0.061 0.191 0.133 0.373 0.197 0.562l144.531-141.797 369.863 363.022-145.65 142.898-367.357-360.565c0.009 0.023 0.020 0.046 0.030 0.068h-0.671v43.016h-1.988c-19.208 0-35.391-11.976-41.036-30.366l-59.448-193.57c-4.15-13.511-1.885-26.835 6.5-38.205s20.428-17.46 34.537-17.46h570.682c14.112 0 26.157 6.090 34.537 17.46 8.384 11.371 10.648 24.694 6.498 38.205zM634.619 538.092l91.034-89.311-18.493-18.151-91.034 89.311 18.493 18.151zM579.142 483.637l54.621-53.587-18.493-18.15-54.621 53.587 18.493 18.15zM523.664 429.184l54.616-53.587-18.493-18.151-54.621 53.587 18.498 18.151zM468.184 374.731l54.621-53.585-18.493-18.15-54.621 53.585 18.493 18.15zM412.706 320.276l54.615-53.587-18.493-18.147-54.621 53.585 18.498 18.15zM357.223 265.822l91.034-89.311-18.493-18.15-91.034 89.311 18.493 18.151z"  horiz-adv-x="1024" />

    
    <glyph glyph-name="qita1" unicode="&#58988;" d="M457.744 300.7h-245.184c-15.038 0-27.243-12.204-27.243-27.243v-245.184c0-15.038 12.204-27.243 27.243-27.243h245.184c15.038 0 27.243 12.204 27.243 27.243v245.184c0 15.038-12.204 27.243-27.243 27.243v0zM441.399 44.617h-212.492v212.492h212.492v-212.492zM811.669 300.7h-245.184c-15.038 0-27.243-12.204-27.243-27.243v-245.184c0-15.038 12.204-27.243 27.243-27.243h245.184c15.038 0 27.243 12.204 27.243 27.243v245.184c0 15.038-12.204 27.243-27.243 27.243v0zM795.324 44.617h-212.492v212.492h212.492v-212.492zM457.744 654.823h-245.184c-15.038 0-27.243-12.204-27.243-27.243v-245.184c0-15.038 12.204-27.243 27.243-27.243h245.184c15.038 0 27.243 12.204 27.243 27.243v245.184c0 15.038-12.204 27.243-27.243 27.243v0zM441.399 398.743h-212.492v212.492h212.492v-212.492zM689.077 654.823c-82.763 0-149.835-67.072-149.835-149.835s67.072-149.835 149.835-149.835c82.763 0 149.835 67.072 149.835 149.835 0 82.763-67.072 149.835-149.835 149.835M689.077 611.236c58.573 0 106.247-47.676 106.247-106.247s-47.676-106.247-106.247-106.247c-58.573 0-106.247 47.676-106.247 106.247 0 58.572 47.676 106.247 106.247 106.247z"  horiz-adv-x="1024" />

    
    <glyph glyph-name="tianjia" unicode="&#58936;" d="M845.144 397.906h-296.128v296.128c0 20.445-16.584 37.017-37.017 37.017-20.445 0-37.017-16.571-37.017-37.017v-296.128h-296.128c-20.445 0-37.017-16.571-37.017-37.017 0-20.434 16.571-37.017 37.017-37.017h296.128v-296.128c0-20.434 16.571-37.017 37.017-37.017 20.434 0 37.017 16.584 37.017 37.017v296.128h296.128c20.434 0 37.017 16.584 37.017 37.017 0 20.458-16.584 37.017-37.017 37.017z"  horiz-adv-x="1024" />

    
    <glyph glyph-name="yusuanguanli" unicode="&#58928;" d="M810.767-5.576h-594.754c-41.003 0-74.358 33.355-74.358 74.346v346.954c0 40.99 33.355 74.346 74.358 74.346h594.753c41.003 0 74.358-33.355 74.358-74.346v-346.955c0.001-40.99-33.355-74.345-74.357-74.345zM216.014 440.498c-13.664 0-24.786-11.11-24.786-24.773v-346.955c0-13.664 11.122-24.773 24.786-24.773h594.753c13.664 0 24.786 11.11 24.786 24.773v346.955c0 13.664-11.122 24.773-24.786 24.773h-594.753zM810.767-5.576h-594.754c-41.003 0-74.358 33.355-74.358 74.346v446.073c0 41.003 33.355 74.358 74.358 74.358h594.753c41.003 0 74.358-33.355 74.358-74.358v-446.073c0.001-40.991-33.355-74.346-74.357-74.346zM216.014 539.629c-13.664 0-24.786-11.122-24.786-24.786v-446.073c0-13.664 11.122-24.773 24.786-24.773h594.753c13.664 0 24.786 11.11 24.786 24.773v446.073c0 13.664-11.122 24.786-24.786 24.786h-594.753zM166.442 192.457c-13.688 0-24.786 11.098-24.786 24.786v396.961c0 40.871 33.513 74.116 74.696 74.116h202.208c7.926 0 15.371-3.788 20.030-10.192l67.195-92.22c8.060-11.062 5.627-26.565-5.435-34.626-11.086-8.048-26.576-5.616-34.626 5.435l-59.774 82.031h-189.598c-13.857 0-25.126-11.013-25.126-24.545v-396.961c0-13.688-11.098-24.786-24.786-24.786z"  horiz-adv-x="1024" />

    
    <glyph glyph-name="qita" unicode="&#58975;" d="M891.41581748 452.09372443c0-12.64723437-10.25517037-22.90119111-22.90119111-22.90119111h-301.54691319c-12.65208889 0-22.90119111 10.256384-22.9011911 22.90119111v301.55176771c0 12.64723437 10.24910222 22.89876385 22.9011911 22.89876385h301.54691319c12.64723437 0 22.90119111-10.25395675 22.90119111-22.89876385v-301.55176771zM891.41581748 452.09372443zM891.41581748 24.265007399999945c0-12.65087525-10.25517037-22.90725925-22.90119111-22.90725926h-301.54691319c-12.65208889 0-22.90119111 10.25517037-22.9011911 22.90725926v301.54691317c0 12.65087525 10.24910222 22.89997748 22.9011911 22.8999775h301.54691319c12.64723437 0 22.90119111-10.24910222 22.90119111-22.8999775v-301.54691317zM891.41581748 24.265007399999945zM484.42269392 24.265007399999945c0-12.65087525-10.25517037-22.90725925-22.9011911-22.90725926h-301.55176771c-12.64723437 0-22.90119111 10.25517037-22.90119111 22.90725926v301.54691317c0 12.65087525 10.256384 22.89997748 22.90119111 22.8999775h301.55176771c12.64723437 0 22.90119111-10.24910222 22.9011911-22.8999775v-301.54691317zM484.42269392 24.265007399999945zM132.2965523 602.8714287299999c0-23.35872948 4.64334697-46.70896355 13.58415645-68.29215289 8.93959585-21.58076208 22.16451792-41.37627497 38.67958992-57.89377422 16.52114015-16.52114015 36.31543941-29.74484859 57.89741511-38.68323082 21.57712118-8.93474133 44.93099615-13.58415645 68.28729837-13.58415645 23.35994311 0 46.70774992 4.64941511 68.29093926 13.58415645 21.5819757 8.93959585 41.37748859 22.16451792 57.89256059 38.68323082 16.52114015 16.51749925 29.74484859 36.31058489 38.68565808 57.89377422 8.94080948 21.58076208 13.58415645 44.93220978 13.58415644 68.29215289 0 23.35387497-4.64334697 46.70774992-13.58415644 68.28365748-8.94080948 21.58076208-22.1633043 41.37748859-38.68565808 57.89741511-16.51628563 16.51749925-36.30937125 29.73756682-57.89256059 38.67958992-21.58076208 8.94202311-44.92978252 13.58415645-68.29093926 13.58415645-23.35508859 0-46.71017718-4.64213333-68.28729837-13.58415645-21.58076208-8.94080948-41.37506133-22.16209067-57.89741511-38.67958992-16.51628563-16.51992652-29.73878045-36.31422578-38.67958992-57.89741511-8.94080948-21.57712118-13.58415645-44.92856889-13.58415645-68.28365748v0zM132.2965523 602.8714287299999z"  horiz-adv-x="1024" />

    
    <glyph glyph-name="jiekou1" unicode="&#58972;" d="M465.857 674.039v39.551c0 21.779-15.557 39.551-34.594 39.551h-115.383c-19.037 0-34.594-17.771-34.594-39.551v-39.551h-138.427v-52.734h138.428v-39.551c0-21.779 15.557-39.551 34.594-39.551h115.383c19.037 0 34.594 17.771 34.594 39.551v39.551h415.283v52.734h-415.283zM327.43 594.938v105.469h92.286v-105.469h-92.286zM465.857 146.695v39.551c0 21.727-15.557 39.551-34.594 39.551h-115.33c-19.037 0-34.594-17.824-34.594-39.551v-39.551h-138.481v-52.734h138.427v-39.551c0-21.727 15.557-39.551 34.594-39.551h115.383c19.037 0 34.594 17.824 34.594 39.551v39.551h415.283v52.734h-415.283zM327.43 67.594v105.469h92.286v-105.469h-92.286zM742.713 449.918c0 21.727-15.557 39.551-34.594 39.551h-115.383c-19.037 0-34.594-17.825-34.594-39.551v-39.551h-415.283v-52.734h415.283v-39.551c0-21.727 15.557-39.551 34.594-39.551h115.383c19.037 0 34.594 17.825 34.594 39.551v39.551h138.427v52.734h-138.428v39.551zM604.286 331.266v105.469h92.286v-105.469h-92.286z"  horiz-adv-x="1024" />

    
    <glyph glyph-name="fengxianceping01" unicode="&#59048;" d="M865.568-127.776l-47.136 0L378.432-127.776 205.6-127.776 189.888-127.776 158.432-127.776c-51.616-0.32-78.88 42.656-78.56 94.272L79.872 672.96c0.32 51.616 42.656 93.952 94.272 94.272l15.712 0 47.136 0c0 0 6.432 0.256 13.504 0C264.704 766.72 268.288 757.44 268.448 750.08c0.32-16.032 0-8 0-24.96 0-1.984-0.768-19.68-20.704-20.16C235.072 704.64 175.968 703.776 175.968 703.776c-12.288-0.16-31.84-23.104-32-32l0-704c21.12-32.416 4.48-32.16 32-32l64 0 32 0 576 0c27.52-0.16 32.16 20.736 32 32l0 704c0.864 10.528-17.728 32.992-45.248 33.184 0 0-45.728-0.768-58.336 0-16.544 0.992-20.768 7.488-20.8 19.168-0.064 16.416-0.608 7.968 0 24.288 0.352 9.216-2.432 18.304 20.96 18.816 5.76 0.128 10.464 0 10.464 0l47.136 0 15.712 0c51.616-0.32 93.952-42.656 94.272-94.272l0-706.464C944.448-85.12 917.152-128.096 865.568-127.776zM760.064 418.112l-256.736-255.808c-15.424-15.36-40.384-15.36-55.808 0l-156.288 155.712c-15.424 15.36-15.424 40.256 0 55.616 15.424 15.36 40.384 15.36 55.808 0l128.384-127.904 228.832 228c15.424 15.36 40.384 15.36 55.808 0C775.488 458.368 775.488 433.472 760.064 418.112zM687.968 703.776l-40.832 0-270.368 0-40.832 0c-17.664 0-32 14.336-32 32s14.336 32 32 32l33.6 0c8.064 71.904 68.352 128 142.4 128s134.336-56.096 142.4-128l33.6 0c17.664 0 32-14.336 32-32S705.632 703.776 687.968 703.776zM511.968 831.776c-26.496 0-48-21.504-48-48s21.504-48 48-48c26.496 0 48 21.504 48 48S538.464 831.776 511.968 831.776z"  horiz-adv-x="1024" />

    
    <glyph glyph-name="licheng" unicode="&#59039;" d="M526.666536 571.627285l-42.97886 0 0-85.125773 42.97886 0L526.666536 571.627285zM214.1478 380.99148l72.29249-46.63718 23.285333 33.82334-72.290443 46.63718L214.1478 380.99148zM166.462754 209.860914l87.002516 0 0 39.23356-87.002516 0L166.462754 209.860914zM521.405719 208.728114l224.054939 266.803555L475.209584 256.207475 521.405719 208.728114zM694.399725 514.646526l-34.106796 25.815969-49.183166-67.251683 34.104749-25.810852L694.399725 514.646526zM512.745479 684.673967c-253.541507 0-459.07972-201.195302-459.07972-449.377754 0-59.07956 33.490765-188.230012 33.490765-188.230012l831.54271 0 0 0.565888 10.898211 0c27.036773 57.271378 42.225707 120.43086 42.225707 187.665147C971.822129 483.477642 766.288009 684.673967 512.745479 684.673967zM890.45189 106.854912l-760.316505 0c-11.987009 36.505425-19.442818 88.364537-19.442818 128.936581 0 211.870432 185.610348 394.996193 402.051889 394.996193 216.444611 0 404.313396-184.148044 404.313396-396.019499C917.057851 194.19512 902.438898 143.360338 890.45189 106.854912zM720.297558 375.836063l23.224957-36.084846 70.736041 44.574195-23.224957 36.084846L720.297558 375.836063zM778.399861 210.208838l84.862783 0 0 39.908942-84.862783 0L778.399861 210.208838zM317.48126 510.838803l53.138244-67.363224 32.743752 25.462928-53.140291 67.367317L317.48126 510.838803zM525.1326 177.555138l-85.044932 76.835969 85.337597 63.333444c-5.588275 1.151219-11.362792 1.794879-17.298991 1.794879-46.243207 0-83.73203-36.694737-83.73203-81.95864 0-45.271066 37.488823-81.968873 83.73203-81.968873 46.24116 0 83.729983 36.696784 83.729983 81.968873 0 8.05035-1.554402 15.669888-3.764744 23.020296L525.1326 177.555138z"  horiz-adv-x="1024" />

    
    <glyph glyph-name="chengben1" unicode="&#59038;" d="M327.441 542.129l251.958 231.711c7.699 7.197 20.221 7.197 27.945 0l195.277-182.2c3.691-3.428 5.773-8.147 5.773-13.024 0-4.929-2.083-9.597-5.773-13.076l-26.996-23.41c-25.019-1.239-29.607-2.082-52.728 0l37.751 36.487-167.304 156.099-213.176-192.587c-29.185-0.343-29.001-1.45-52.728 0zM248.35 542.129l146.556 228.203c5.457 8.753 17.479 11.785 26.944 6.723l116.5-50.38c-22.54-21.381-12.549 2.214-52.727-26.363l-66.411 35.617-118.135-193.8c-35.247-1.055-31.636 0.923-52.728 0zM808.604-11.323h-593.208c-54.52 0-98.864 41.391-98.864 92.272v384.831c0 50.856 50.935 76.35 105.455 76.35h580.001c54.52 0 105.481-25.493 105.481-76.35v-384.831c0-50.883-44.37-92.272-98.864-92.272v0 0zM226.389 489.743c-31.505 0-57.13-9.755-57.13-38.069v-372.546c0-28.341 25.626-38.069 57.13-38.069h571.195c31.505 0 57.13 9.728 57.13 38.069v372.546c0 28.314-25.626 38.069-57.13 38.069h-571.195zM683.535 199.612c-50.883 0-92.273 41.443-92.273 92.378s41.391 92.378 92.273 92.378c50.856 0 92.272-41.443 92.272-92.378 0-50.935-41.417-92.378-92.272-92.378v0 0zM683.509 337.784c-25.466 0-46.216-20.721-46.216-46.189 0-25.441 20.748-46.136 46.216-46.136 25.466 0 46.216 20.695 46.216 46.135 0 25.493-20.748 46.189-46.216 46.189v0 0z"  horiz-adv-x="1024" />

    
    <glyph glyph-name="qiaoliang" unicode="&#58921;" d="M880.306 424.501h-736.582c-15.645 0-28.337-12.226-28.337-27.353v-382.939c0-15.126 12.691-27.353 28.337-27.353s28.337 12.226 28.337 27.353v355.587h679.909v-355.587c0-15.126 12.691-27.353 28.337-27.353 15.618 0 28.311 12.226 28.311 27.353v382.939c0 15.126-12.691 27.353-28.311 27.353zM512 233.033c-140.814 0-254.955-110.204-254.955-246.175h56.648c0 105.745 88.787 191.469 198.308 191.469s198.308-85.724 198.308-191.469h56.648c0 135.97-114.142 246.175-254.955 246.175z"  horiz-adv-x="1024" />

    
    <glyph glyph-name="tishi" unicode="&#59325;" d="M209.61009968 716.78177533c-12.42627287 12.42627287-32.58482284 12.42627287-44.99944486 0-12.43274557-12.42886195-12.43274557-32.57576107 0-45.00850663l44.99944486-44.99944486c12.4340401-12.42886195 32.573172-12.42886195 45.00591755 0 12.42627287 12.42238925 12.42627287 32.5666993 0 44.99944486l-45.00591755 45.00850663zM814.27468642 716.78177533l-45.0007394-45.00850663c-12.42756741-12.43274557-12.42756741-32.57705561 0-44.99944486 12.41462203-12.42886195 32.5666993-12.42886195 45.0007394 0l44.99685579 44.99944486c12.43792371 12.43145102 12.43792371 32.57705561 0 45.00850663-12.42368379 12.42368379-32.56799383 12.42368379-44.99556125 0v0zM130.05425019 464.91770373h-63.64985774c-17.57465157 0-31.82363433-14.24768821-31.82363432-31.82233978 0-17.5785352 14.24898275-31.82492887 31.82363432-31.82492887h63.64985774c17.57724065 0 31.82104525 14.24509915 31.82104526 31.82492887 0 17.57335703-14.24380461 31.82233979-31.82104526 31.82233978v0zM957.48039363 464.91770373h-63.64985773c-17.5720625 0-31.82363433-14.24768821-31.82363433-31.82233978 0-17.5785352 14.25286637-31.82492887 31.82363433-31.82492887h63.64985773c17.5720625 0 31.83140157 14.24509915 31.83140157 31.82492887 0.00129454 17.57335703-14.25933906 31.82233979-31.83140157 31.82233978v0zM480.12070053 830.89532397v-63.64597412c0-17.57594611 14.24251006-31.81975072 31.81845617-31.81975072 17.57465157 0 31.83010702 14.24380461 31.83010703 31.81975072v63.64597412c0 17.57724065-14.25545545 31.82363433-31.83010703 31.82363433s-31.81845618-14.24898275-31.81845617-31.82363433v0zM289.17242185 385.35667611c0 123.02903372 99.73122845 222.76932393 222.76673485 222.76932392 123.03809549 0 222.77450208-99.73899568 222.77450208-222.76932392 0-123.03291733-99.73640659-222.77709117-222.77450208-222.77709116-123.0355064-0.00258907-222.76673485 99.74287929-222.76673485 222.77709116v0zM225.52644773 385.35667611c0-158.19775493 128.22789941-286.43212705 286.41270897-286.43212704 158.1925768 0 286.42177075 128.23307757 286.42177075 286.43212704 0 158.18869317-128.22660489 286.41659259-286.42177075 286.41659259-158.18739863 0-286.41270898-128.22789941-286.41270897-286.41659259v0zM448.29447712-60.19491714000003c0-17.56300073 14.24898275-31.82363433 31.82622341-31.82363433h63.64985773c17.57724065 0 31.82492887 14.2606336 31.82492887 31.82363433 0 17.58630242-14.24768821 31.82492887-31.82492887 31.82492887h-63.64985773c-17.57594611 0.00258907-31.82622341-14.23992098-31.82622341-31.82492887v0zM384.64720845 35.27728038999999c0-17.55911712 14.24639369-31.82104525 31.82104526-31.82104524h190.94698414c17.57594611 0 31.82492887 14.26192814 31.82492887 31.82104524 0 17.59148057-14.25157183 31.83140157-31.82492887 31.83140156h-190.94439507c-17.57724065 0.00129454-31.82233979-14.24121552-31.82233979-31.83140156v0z"  horiz-adv-x="1024" />

    
    <glyph glyph-name="huojian" unicode="&#58903;" d="M811.05224609 550.528125c0 57.7546875-46.97050781 104.74101562-104.70585937 104.74101562-57.75380859 0-104.74013672-46.98720703-104.74013672-104.74101562 0-57.73535156 46.98632813-104.70585938 104.74013672-104.70585938C764.08173828 445.82226562 811.05224609 492.79365234 811.05224609 550.528125zM766.82568359 550.50615234c0-33.34746094-27.13095703-60.47841797-60.47929687-60.47841797-33.36679688 0-60.51357422 27.13095703-60.51357422 60.47841797 0 33.36767578 27.14589844 60.51445312 60.51357422 60.51445313C739.69472656 611.02060547 766.82568359 583.87382812 766.82568359 550.50615234zM960.15869141 798.1836914099999l-0.74003907 5.96865234-6.00996093 0.24960937c-10.78154297 0.44736328-21.42949219 0.67412109-31.64677735 0.6741211-76.28027344 0-147.81621094-11.90742188-212.61621094-35.39267578-51.92226563-18.81738281-99.64951172-45.06416016-141.85634765-78.00908203-63.09404297-49.24951172-94.39453125-97.99541016-102.03398438-110.89072266l-147.66855468-18.47373047L99.19882812 343.91308594l214.14462891 0c-2.88808594-59.59423828 10.79824219-106.05146484 40.72675781-138.16669922 39.77226562-42.6796875 98.39443359-49.05175781 129.79775391-49.05175781 6.42919922 0 11.83095703 0.25751953 15.87041016 0.54580078L499.73837891-37.075195310000026l237.32753906 218.46005859L737.06591797 310.25273438c58.60810547 43.75810547 106.79853516 96.27099609 143.26699219 156.12539062 29.65078125 48.66591797 51.64980469 102.2484375 65.38623047 159.26132813C969.11386719 722.7383789099999 960.53574219 795.14882812 960.15869141 798.1836914099999zM685.69824219 313.82460936999996l0-117.34277343-134.57021485-118.18652344 0 86.74013672c0 24.40458984-20.08037109 44.25908203-44.7618164 44.25908203-1.89228516 0-12.45761719-1.23222656-22.49736328-1.23222656-39.32402344 0-69.5671875 11.06367187-89.89101563 32.88339843-22.19853516 23.83242188-32.19785156 60.81855469-28.91777344 106.96640625 0.84990234 12.121875-3.46816406 24.22880859-11.84765625 33.21650391-8.38476563 8.99384766-20.16826172 14.15214844-32.32880859 14.15214844L223.24941406 395.28076172 341.45703125 513.4875l133.67373047 16.75371094c14.13017578 1.74462891 26.63261719 10.27089844 33.41777344 22.75927734 4.46132812 8.06044922 111.78369141 195.97060547 402.2305664 200.5875-0.61171875-81.53876953-23.78759766-268.93828125-207.07998047-404.11230469C692.42802734 341.15859375 685.69824219 327.83085938 685.69824219 313.82460936999996zM274.98095703 222.02285156000005c-21.86630859 38.74130859-21.40839844 72.69345703-21.40224609 73.01777344l0.37705078 14.98447266L62 160.69453124999995l116.84707031-19.45019531L101.28271484 22.559472659999983l159.5381836 41.12578125 38.87314453-97.21230469L446.42480469 113.21953125000005l-12.33720703 2.95136719C358.93759766 134.14892578 303.91982422 170.75273436999998 274.98095703 222.02285156000005zM227.54638672 121.89697265999996c8.3109375 12.47695312 9.65390625 28.24628906 3.59208984 42.18398437-6.04248047 13.89199219-18.45175781 23.63027344-33.17783203 26.04726563l-11.89423828 1.98193359 33.39755859 25.96025391c10.79912109-24.43623047 25.98134766-46.97314453 45.21972657-67.10361328 23.45097656-24.54082031 52.45664062-44.85849609 86.33408203-60.49335938l-32.56171875-32.56171875-12.25634766 30.62109375c-6.64365234 16.61660156-23.23916016 27.78134766-41.29628906 27.78134766-3.55253906 0-7.09980469-0.43066406-10.55917969-1.28496094l-37.64443359-9.38935547L227.54638672 121.89697265999996z"  horiz-adv-x="1025" />

    
    <glyph glyph-name="arrow-right-copy" unicode="&#58913;" d="M336.733 776.333l-56.278-55.72 334.857-337.154-337.673-334.315 55.802-56.184 393.944 390.040z"  horiz-adv-x="1024" />

    
    <glyph glyph-name="jg" unicode="&#58898;" d="M511.955 763.518c-208.321 0-377.788-169.468-377.788-377.788 0-208.326 169.468-377.794 377.788-377.794 208.326 0 377.794 169.468 377.794 377.794 0 208.321-169.468 377.788-377.794 377.788v0zM511.955 61.903c-178.559 0-323.82 145.26-323.82 323.826 0 178.559 145.26 323.82 323.82 323.82 178.565 0 323.825-145.26 323.825-323.82 0-178.565-145.26-323.826-323.825-323.826v0zM620.816 385.73c14.922 0 26.984 12.088 26.984 26.983 0 14.897-12.062 26.988-26.984 26.988h-81.874v12.764l100.009 104.46c10.282 10.791 10.117 27.876-0.676 38.153-10.742 10.257-27.686 9.879-38.022-0.941l-85.68-90.048-90.724 90.536c-10.577 10.548-27.632 10.496-38.158-0.054-10.524-10.553-11.035-27.634-0.486-38.158l99.766-100.033v-16.676h-79.931c-14.897 0-26.988-12.089-26.988-26.988 0-14.893 12.089-26.983 26.988-26.983h79.931v-53.974h-79.931c-14.897 0-26.988-12.061-26.988-26.983s12.089-26.988 26.988-26.988h79.931v-80.227c0-14.922 12.090-26.984 26.983-26.984 14.897 0 26.988 12.062 26.988 26.984v80.227h81.874c14.922 0 26.984 12.066 26.984 26.988s-12.062 26.983-26.984 26.983h-81.874v53.974h81.874zM620.816 385.73z"  horiz-adv-x="1024" />

    
    <glyph glyph-name="jiashizhenghuanzheng" unicode="&#58889;" d="M742.938 265.555c-8.54 8.012-12.062 22.363-57.404 28.878s-42.085 28.702-42.085 29.142c0.264 8.804 0.528 17.345 0.528 17.345s24.299 6.339 31.168 33.104c14.615 5.722 12.678 9.421 14.087 16.817 0 0 4.402 30.023-5.458 29.406 0 0-6.427 0-4.843 6.867 0.528 11.446 0.528 33.809-0.264 41.38-0.792 7.66-6.603 28.35-23.067 31.432-16.464 3.081-9.861 1.496-15.319 2.289-5.458 0.792-3.962 3.786-14.087 3.786l-21.13 4.226c-10.214 0-16.728-16.288-22.187-17.081s-6.779 2.377-18.049 0.264c-16.464-3.081-14.175-24.916-14.968-32.664-0.792-7.66-2.201-28.526-0.704-35.394 1.585-6.867-3.345-6.163-3.345-6.163-11.798 0-8.101-29.406-8.101-29.406 1.761-7.748 6.692-8.716 17.696-15.496 5.194-25.004 29.142-33.632 29.142-33.632s0.088-16.024 0.176-19.545c-0.353-1.409 2.553-21.394-36.186-26.942-45.342-6.515-53.178-20.954-61.719-28.878-8.54-8.012-9.508-46.135-9.508-46.135h273.287c0.264 0.176 0.881 38.387-7.66 46.399zM273.138 272.687h169.924v-53.443h-169.924v53.443zM273.138 379.571h169.924v-53.443h-169.924v53.443zM273.138 486.368h169.924v-53.443h-169.924v53.443zM774.722 215.986c-52.738-99.841-157.598-167.899-278.394-167.899-173.798 0-314.579 140.87-314.579 314.579s140.87 314.579 314.579 314.579c165.522 0 301.197-127.84 313.699-290.191h51.858c-12.591 190.966-171.421 341.961-365.557 341.961-202.324 0-366.261-164.025-366.261-366.349s164.025-366.349 366.349-366.349c134.971 0 252.861 72.988 316.429 181.634l-38.122 38.035zM778.948 387.055l57.493-99.577 57.493 99.577z"  horiz-adv-x="1024" />

    
    <glyph glyph-name="bofang" unicode="&#59077;" d="M723.593 487.42266666c-126.913 68.643-203.366 137.271-330.28 205.93-126.913 68.663-190.357 34.321-190.357-102.949v-411.879c0-137.308 63.459-171.629 190.357-103.002 126.914 68.696 203.366 137.308 330.28 205.951 126.896 68.644 126.896 137.325-0.001 205.951v0zM723.593 487.42266666z"  horiz-adv-x="1024" />

    
    <glyph glyph-name="mima" unicode="&#58897;" d="M770.936889 478.598518 252.681418 478.598518c-78.05575 0-141.343145-63.286372-141.343145-141.343145l0-259.127735c0-78.054727 63.286372-141.343145 141.343145-141.343145l518.255471 0c78.056774 0 141.343145 63.288418 141.343145 141.343145L912.280034 337.255373C912.280034 415.312146 848.993662 478.598518 770.936889 478.598518zM865.165993 78.128661c0-52.037167-42.189891-94.229105-94.229105-94.229105L252.681418-16.100444c-52.037167 0-94.229105 42.191938-94.229105 94.229105L158.452313 337.255373c0 52.03819 42.190915 94.229105 94.229105 94.229105l518.255471 0c52.039213 0 94.229105-42.190915 94.229105-94.229105L865.165993 78.128661zM558.923194 831.955358l-94.228081 0c-130.116453 0-235.571227-105.454774-235.571227-235.571227l0-94.228081 47.114041 0L276.237927 619.94064c0 71.29272 81.392752 164.900677 164.899654 164.900677 48.494481 0 141.343145 0 141.343145 0 85.946464 0 164.899654-98.093109 164.899654-164.900677 0-33.978882 0-117.048833 0-117.048833l47.115064 0 0 93.491301C794.494421 726.500585 689.017134 831.955358 558.923194 831.955358zM511.809153 266.584823c-39.039131 0-70.671573-31.630395-70.671573-70.671573 0-39.016619 31.632441-70.671573 70.671573-70.671573s70.671573 31.654954 70.671573 70.671573C582.480726 234.954429 550.849308 266.584823 511.809153 266.584823z"  horiz-adv-x="1024" />

    
    <glyph glyph-name="jiandujiancha" unicode="&#58970;" d="M830.27 427.896c-17.287 129.436-83.35 196.979-135.906 230.883-57.318 36.975-111.496 43.007-112.036 43.063l-3.003 0.315v-38.495l-70.704 75.345 75.649 73.336v-45.658l2.099-0.492c69.846-16.377 129.641-44.388 177.729-83.255 38.435-31.063 69.53-69.103 92.424-113.062 34.583-66.402 39.797-126.483 40.542-139.669l-66.796-2.311zM85.161 458.479h45.369l0.49 2.101c16.341 70.053 44.291 130.030 83.077 178.266 30.999 38.552 68.961 69.743 112.83 92.713 66.25 34.688 126.196 39.931 139.372 40.682l2.256-67.020c-129.093-17.323-196.479-83.587-230.315-136.305-36.899-57.492-42.939-111.835-42.997-112.377l-0.314-3.002h38.494l-75.137-70.781-73.127 75.724zM435.642 6.179l-2.099 0.492c-69.85 16.364-129.66 44.347-177.77 83.172-38.463 31.041-69.593 69.055-92.522 112.988-34.688 66.458-39.938 126.735-40.692 139.948l66.836 2.311c17.33-129.427 83.445-197.003 136.039-230.937 57.358-37.008 111.564-43.074 112.105-43.132l3.004-0.316v38.597l70.345-75.283-75.247-73.351v45.513zM553.664 62.701c129.102 17.375 196.455 83.635 230.26 136.342 36.866 57.478 42.869 111.797 42.925 112.34l0.312 3.001h-38.231l75.003 70.78 73.163-75.725h-45.532l-0.49-2.102c-16.323-70.001-44.228-129.94-82.942-178.155-30.952-38.546-68.854-69.742-112.657-92.723-66.241-34.753-126.323-40.025-139.518-40.782l-2.293 67.024zM511.129 209.050c-37.342 0-73.678 9.347-108 27.784-27.526 14.784-53.837 35.418-78.203 61.327-37.821 40.214-59.236 80.938-62.969 88.328 3.771 7.385 25.401 48.116 63.337 88.336 24.439 25.91 50.766 46.546 78.253 61.331 34.27 18.436 70.466 27.784 107.583 27.784 35.138 0 70.11-9.359 103.947-27.819 27.15-14.812 53.638-35.481 78.729-61.433 38.724-40.055 62.153-80.53 66.429-88.185-4.319-7.655-28.021-48.227-66.894-88.295-25.157-25.93-51.653-46.581-78.752-61.376-33.763-18.433-68.572-27.779-103.46-27.779zM511.129 497.408c-61.341 0-111.246-49.747-111.246-110.895 0-61.125 49.904-110.855 111.246-110.855 61.319 0 111.205 49.73 111.205 110.855 0 61.148-49.886 110.895-111.205 110.895zM511.129 319.542c-37.247 0-67.549 30.052-67.549 66.992 0 7.676 1.326 15.232 3.944 22.499l67.763-27.090-20.139 69.601c5.386 1.262 10.748 1.9 15.98 1.9 37.247 0 67.55-30.016 67.552-66.909 0.001-36.938-30.303-66.992-67.551-66.992z"  horiz-adv-x="1024" />

    
    <glyph glyph-name="huifu" unicode="&#58933;" d="M859.615 3.291c0 0-65.178 378.031-404.102 378.031v143.391l-291.127-260.711 291.127-243.331v165.117c182.497 0 308.508-13.035 404.102-182.497v0 0z"  horiz-adv-x="1024" />

    
    <glyph glyph-name="quyu" unicode="&#59036;" d="M690.453 198.375c-71.349-71.455-149.872-150.029-149.872-150.029-7.172-7.224-18.984-7.224-26.156 0 0 0-78.521 78.575-149.871 150.029-122.818-19.881-207.404-61.541-207.404-109.74 0-67.5 165.797-122.185 370.354-122.185 204.557 0 370.354 54.685 370.354 122.185 0 48.146-84.586 89.859-207.404 109.74v0zM690.453 198.375zM517.748 159.035c5.326-5.326 14.080-5.326 19.459 0 0 0 195.223 195.381 195.698 196.172 40.553 47.303 65.021 108.738 65.021 175.922 0 149.396-121.078 270.474-270.474 270.474-149.396 0-270.474-121.078-270.474-270.474 0-67.183 24.521-128.619 65.021-175.922 0.58-0.791 195.75-196.172 195.75-196.172v0zM527.504 654.58c64.23 0 116.227-52.049 116.227-116.227s-52.049-116.227-116.227-116.227c-64.178 0-116.227 52.049-116.227 116.227-0.052 64.178 51.997 116.227 116.227 116.227v0zM527.504 654.58z"  horiz-adv-x="1024" />

    
    <glyph glyph-name="suoyouzhaobiaoxiangmu" unicode="&#59107;" d="M511.443833 761.334951l336.226694-213.907834L511.443833 333.524398 175.221232 547.427116 511.443833 761.334951M511.443833 832.303282l-447.798792-284.876166 447.798792-284.873096 447.802886 284.873096L511.443833 832.303282 511.443833 832.303282zM959.245695 453.469188 511.443833 168.596092l-447.798792 284.873096 0-70.969355 447.798792-284.873096 447.802886 284.873096L959.246719 453.469188zM959.245695 292.542009 511.443833 7.666866l-447.798792 284.875143 0-70.970378 447.798792-284.873096 447.802886 284.873096L959.246719 292.542009z"  horiz-adv-x="1024" />

    
    <glyph glyph-name="quyu1" unicode="&#58978;" d="M514.521 547.258c18.136-11.358 40.349-26.544 60.994-41.227 40.85-28.991 197.538-17.821 261.48-23.030 63.881-5.145 112.136-19.264 112.136-19.264l-89.105 147.84c0 0 96.575 144.892 84.651 141.879-11.798-3.013-71.975-4.455-111.383 6.651-39.408 11.107-130.020 11.86-191.704 11.86-45.745 0-101.405 39.344-127.007 59.613v49.635h-72.164v-769.637h72.1v435.678zM615.676 279.815v-54.217c102.972-13.805 174.070-43.299 174.070-77.496 0-47.44-136.483-85.907-304.718-85.907s-304.655 38.466-304.655 85.907c0 33.508 68.335 62.497 167.858 76.68v54.405c-161.646-18.951-277.609-70.595-277.609-131.086 0-76.807 185.492-138.995 414.406-138.995 228.916 0 414.405 62.187 414.405 138.995-0.061 61.306-118.975 113.388-283.758 131.713z"  horiz-adv-x="1024" />

    
    <glyph glyph-name="shuju" unicode="&#58883;" d="M859.125-7.304h-172.096c-13.597 0-24.613 10.937-24.613 24.457v733.696c0 13.52 11.016 24.457 24.613 24.457h172.096c13.598 0 24.613-10.937 24.613-24.457v-733.696c0-13.52-11.016-24.457-24.613-24.457zM834.513 726.391h-122.87v-684.782h122.87v684.782zM588.168-7.304h-172.35c-13.598 0-24.613 10.937-24.613 24.457v343.722c0 13.52 11.016 24.457 24.613 24.457h172.35c13.618 0 24.613-10.937 24.613-24.457v-343.722c0-13.52-10.996-24.457-24.613-24.457zM563.554 336.437h-123.124v-294.828h123.124v294.828zM317.659-7.304h-172.35c-13.598 0-24.613 10.937-24.613 24.457v489.13c0 13.52 11.016 24.457 24.613 24.457h172.35c13.597 0 24.613-10.937 24.613-24.457v-489.13c0-13.52-11.016-24.457-24.613-24.457zM293.046 481.825h-123.125v-440.218h123.125v440.218z"  horiz-adv-x="1024" />

    
    <glyph glyph-name="ios" unicode="&#58902;" d="M516.739 581.191l-77.878 25.178c0 0-116.271 45.223-203.322-50.331-89.008-97.658-82.203-218.073-43.262-327.096 38.937-109.048 113.078-229.115 194.669-230.663 63.041-1.196 67.978 34.151 155.736 33.538 0 0 31.519-4.178 77.878-20.947 46.36-16.797 85.71-19.686 134.114 29.361 69.209 70.082 103.826 176.090 103.826 176.090 0 0-115.569 42.564-112.471 167.769 3.070 125.205 90.823 155.178 90.823 155.178 0 0-66.111 112.613-216.292 75.486l-103.822-33.562zM512.327 691.146c0 0-16.74 181.234 207.584 206.853 0 0 14.464-192.393-207.583-206.853v0z"  horiz-adv-x="1024" />

    
    <glyph glyph-name="xiazai1" unicode="&#58998;" d="M846.416 329.142c-16.325 0-29.605-13.284-29.605-29.615v-166.79h-628.187v166.79c0 16.329-13.278 29.615-29.597 29.615-16.334 0-29.622-13.284-29.622-29.615v-196.395c0-16.329 13.287-29.614 29.622-29.614h687.389c16.329 0 29.614 13.283 29.614 29.614v196.395c0 16.329-13.283 29.615-29.614 29.615zM359.522 443.12c-11.527-11.551-11.586-30.325-0.166-41.961l121.505-147.261c5.79-5.813 13.79-8.859 22.246-8.49 0.46-0.021 0.922-0.031 1.382-0.031 7.957 0 15.369 3.023 20.865 8.511l0.329 0.361 121.165 146.911c11.411 11.635 11.353 30.41-0.176 41.97-5.601 5.641-13.060 8.753-20.997 8.753-7.936 0-15.398-3.111-21.012-8.758l-0.315-0.348-72.018-87.294v336.891c0 16.349-13.283 29.65-29.614 29.65-16.319 0-29.597-13.301-29.597-29.65v-335.949l-71.584 86.695c-5.604 5.65-13.065 8.762-21.008 8.762-7.942 0-15.404-3.111-21.007-8.762z"  horiz-adv-x="1024" />

    
    <glyph glyph-name="che" unicode="&#58907;" d="M888.824 447.354h-74.473c-3.491 0-6.853-1.034-9.697-2.586l-33.616 101.107c-10.731 57.535-51.2 85.204-100.978 85.204h-315.345c-57.147 0-91.798-37.236-100.978-85.204l-33.616-101.495c-3.103 1.81-6.594 2.974-10.343 2.974h-74.473c-11.378 0-20.687-9.309-20.687-20.687v-17.972c0-11.378 9.309-20.687 20.687-20.687l28.186-4.784c-8.792-17.584-13.964-37.495-13.964-60.638l-10.343-119.337c0-3.491 0.259-6.982 0.646-10.473-0.388-2.198-0.646-4.396-0.646-6.723v-143.515c0-20.428 16.549-36.978 36.978-36.978h56.501c20.428 0 36.978 16.549 36.978 36.978v46.158h485.624v-46.158c0-20.428 16.549-36.978 36.978-36.978h56.501c20.428 0 36.978 16.549 36.978 36.978v143.515c0 2.327-0.259 4.525-0.646 6.723 0.388 3.491 0.646 7.111 0.646 10.473l-10.473 119.337c0 23.273-5.042 43.184-14.093 60.638l27.539 4.655c11.507 0 20.687 9.309 20.687 20.687v18.101c0.129 11.378-9.18 20.687-20.558 20.687v0zM278.69 468.558l24.695 65.552 0.388 1.552c2.457 13.317 7.887 15.644 16.032 25.859h385.939c8.145-10.473 13.188-13.188 15.515-25.729l25.083-67.232 9.18-36.59c-2.069-26.764-34.263-47.838-60.897-47.838h-364.089c-26.764 0-58.958 21.075-61.026 47.838l9.18 36.59zM296.015 156.574c-30.901 0-55.984 25.083-55.984 55.984s25.083 55.984 55.984 55.984 55.984-25.083 55.984-55.984c0-30.901-25.083-55.984-55.984-55.984v0zM608.904 197.948v0c0-9.18-7.499-16.679-16.679-16.679h-157.22c-9.18 0-16.679 7.499-16.679 16.679v46.804c0 9.18 7.499 16.679 16.679 16.679h157.22c9.18 0 16.679-7.499 16.679-16.679v-46.804zM728.888 156.574c-30.901 0-56.113 25.083-56.113 55.984s25.083 55.984 56.113 55.984c30.901 0 55.984-25.083 55.984-55.984 0-30.901-25.083-55.984-55.984-55.984v0zM728.888 156.574z"  horiz-adv-x="1024" />

    
    <glyph glyph-name="shuju2" unicode="&#58979;" d="M824.12771101 217.72469475000003l-274.04012658-145.16780032c-20.04566813-10.62069931-52.58771456-10.59741355-72.68344718 0.04773661L202.68289821 218.13219783c-6.25925006 3.31591225-10.57179875 7.27102237-12.93881117 11.46714226L64.41703879 229.59934009000006c2.56261347-7.44100978 9.08965091-14.55718059 19.5974144-20.32044146l379.28308508-208.03041849c27.74515143-15.21733632 72.67296825-15.24760803 100.3482624-0.0663643l378.34233402 207.51347143c10.76856491 5.90530446 17.31772416 13.24502016 19.69288646 20.90375282L837.23185152 229.59934009000006C834.9405184 225.24953373000005 830.58139819 221.14422897999998 824.12771101 217.72469475000003zM824.12771101 363.96248177999996L550.08758443 218.79351751000002c-20.04566813-10.61837141-52.58771456-10.59974258-72.68344718 0.0477366L202.68289821 364.36998485000004c-6.25925006 3.31591225-10.57179875 7.27102237-12.93881117 11.46714226L64.41703879 375.83712711c2.56261347-7.44100978 9.08965091-14.55601664 19.5974144-20.32044146l379.28308508-208.02808946c27.74515143-15.21966535 72.67296825-15.24760803 100.3482624-0.06869333l378.34233402 207.51347143c10.76856491 5.90530446 17.31772416 13.24502016 19.69288646 20.90375282L837.23068757 375.83712711C834.9405184 371.48732075 830.58139819 367.38085205000004 824.12771101 363.96248177999996zM84.01445319 501.18629717l379.28308508-208.03041848c27.74515143-15.21733632 72.67296825-15.24760803 100.3482624-0.06869334l378.34233402 207.51347143c27.6764581 15.1789147 27.62057159 39.82238379-0.12341476 55.03972011L562.58163371 763.67079538c-27.74398635 15.21733632-72.67296825 15.24760803-100.3482624 0.0663643L83.8910373 556.22368825C56.21458034 541.04477355 56.27046685 516.40363349 84.01445319 501.18629717z"  horiz-adv-x="1024" />

    
    <glyph glyph-name="truck_move" unicode="&#59044;" d="M943.6-59.6l-420.6 250.4-422.2-247.1 424.2 886.6 418.6-889.9z"  horiz-adv-x="1044" />

    
    <glyph glyph-name="fangxiang" unicode="&#59229;" d="M1016.881326 366.81589 1008.393369 358.712293C1008.249234 358.552143 1008.025023 358.520113 1007.864873 358.375977L880.001001 242.763591C870.648233 233.811198 855.514044 233.811198 846.129246 242.763591L840.652111 250.835158C831.299343 259.771536 834.326181 274.281139 843.678949 283.233531L920.871317 352.450422 546.536378 352.450422 546.536378-22.252862 615.945449 54.298905C624.897842 63.651673 639.375414 66.694526 648.327807 57.341758L656.399374 51.864623C665.335752 42.479825 665.335752 27.345637 656.399374 17.992868L537.840225-111.888896C537.680075-112.065061 537.63203-112.257241 537.47188-112.417391L529.368283-120.889334C524.932124-125.581733 519.006569-127.90391 513.129058-127.87188 507.219518-127.90391 501.342008-125.581733 496.841789-120.889334L488.738192-112.417391C488.578042-112.257241 488.546012-112.049046 488.385862-111.888896L372.78949 15.990992C363.837097 25.34376 363.837097 40.477948 372.78949 49.862746L380.861057 55.339881C389.797435 64.692649 404.307038 61.649797 413.259431 52.297028L482.476322-24.895339 482.476322 352.450422 103.128683 352.450422 180.321051 283.233531C189.673819 274.281139 192.716672 259.771536 183.363904 250.835158L177.886769 242.763591C168.501971 233.811198 153.367782 233.811198 144.015014 242.763591L16.135127 358.375977C15.974977 358.520113 15.766781 358.552143 15.606631 358.712293L7.134689 366.81589C2.44229 371.316109 0.120113 377.193619 0.152143 383.103159 0.120113 388.996684 2.44229 394.906225 7.134689 399.342383L8.624085 400.76772C11.763028 406.068689 16.359337 410.328683 21.900532 413.083266L146.016891 526.373475C155.369659 535.309853 170.503847 535.309853 179.888646 526.373475L185.36578 518.301908C194.718549 509.349515 191.675696 494.871942 182.322928 485.91955L105.77116 416.510479 482.476322 416.510479 482.476322 792.847294 413.259431 715.654926C404.307038 706.318173 389.797435 703.275321 380.861057 712.628089L372.78949 718.105224C363.837097 727.490022 363.837097 742.62421 372.78949 751.976978L488.385862 879.840851C488.546012 880.001001 488.578042 880.225211 488.738192 880.369346L496.841789 888.857304C501.342008 893.549703 507.219518 895.855865 513.129058 895.823835 519.006569 895.855865 524.932124 893.549703 529.368283 888.857304L530.793619 887.367907C536.078574 884.21295 540.354582 879.616641 543.109165 874.075446L656.399374 749.975102C665.335752 740.622333 665.335752 725.488145 656.399374 716.103347L648.327807 710.626212C639.375414 701.273444 624.897842 704.300282 615.945449 713.669065L546.536378 790.204817 546.536378 416.510479 918.22884 416.510479 841.677072 485.91955C832.324304 494.871942 829.297466 509.349515 838.650235 518.301908L844.127369 526.373475C853.496153 535.309853 868.646356 535.309853 877.999124 526.373475L1007.864873 407.814326C1008.057053 407.670191 1008.249234 407.606131 1008.393369 407.445981L1016.881326 399.342383C1021.55771 394.906225 1023.879887 388.996684 1023.847857 383.103159 1023.879887 377.193619 1021.55771 371.316109 1016.881326 366.81589Z"  horiz-adv-x="1024" />

    
    <glyph glyph-name="bianji" unicode="&#59056;" d="M908.785955 403.584034c-11.04966 0-20.008706-8.958022-20.008706-20.008706l0-338.328565c0-38.614459-31.416524-70.030983-70.030983-70.030983L202.707748-24.78422c-38.614459 0-70.030983 31.416524-70.030983 70.030983l0 676.303067c0 38.614459 31.416524 70.030983 70.030983 70.030983l362.378308 0c11.04966 0 20.008706 8.958022 20.008706 20.008706 0 11.050684-8.959046 20.008706-20.008706 20.008706L202.707748 831.598224c-60.681034 0-110.049418-49.367361-110.049418-110.049418l0-676.303067c0-60.681034 49.367361-110.049418 110.049418-110.049418l616.038518 0c60.681034 0 110.049418 49.367361 110.049418 110.049418L928.795685 383.574305C928.795685 394.626012 919.836639 403.584034 908.785955 403.584034zM942.576549 778.014842 907.20597 813.385421c-23.405059 23.405059-61.486376 23.400966-84.891436 0l-422.369633-422.36861c-1.295506-1.296529-2.407839-2.76395-3.304256-4.363378L269.318842 159.583834c-4.457522-7.951089-2.977821-17.909905 3.598968-24.221658 3.830235-3.675716 8.823969-5.572926 13.859659-5.572926 3.613294 0 7.247054 0.977257 10.488889 2.973728l219.285309 135.104047c1.327228 0.816598 2.552126 1.784646 3.654226 2.885723l422.369633 422.36861C965.979562 716.528466 965.979562 754.609783 942.576549 778.014842zM418.556794 343.919143l55.42124-55.279001-132.025942-81.343633L418.556794 343.919143zM914.279063 721.420893 505.926678 313.069531l-63.748906 63.586201L850.612021 785.087934c7.798617 7.800663 20.493753 7.804756 28.29544 0l35.371602-35.371602C922.081773 741.915669 922.081773 729.222579 914.279063 721.420893z"  horiz-adv-x="1024" />

    
    <glyph glyph-name="exit" unicode="&#59022;" d="M512-43.2c-224.288 0-406.752 182.464-406.752 406.752 0 137.216 68.64 264.288 183.584 339.904 11.104 7.232 25.952 4.192 33.248-6.88 7.296-11.072 4.192-25.984-6.88-33.248-101.408-66.688-161.984-178.784-161.984-299.776 0.032-197.824 160.96-358.752 358.784-358.752 197.856 0 358.784 160.928 358.784 358.752 0 121.024-60.576 233.088-161.984 299.776-11.072 7.296-14.144 22.176-6.88 33.248 7.328 11.072 22.176 14.080 33.248 6.88 114.976-75.616 183.616-202.688 183.616-339.904-0.032-224.288-182.496-406.752-406.784-406.752zM512 462.56c-13.248 0-24 10.752-24 24v300.64c0 13.248 10.752 24 24 24s24-10.752 24-24v-300.64c0-13.248-10.752-24-24-24z"  horiz-adv-x="1024" />

    
    <glyph glyph-name="zaixian" unicode="&#59031;" d="M825.77831592 756.65332675L197.64506973 756.65332675c-43.35201386 0-78.5158875-35.89304766-78.5158875-80.08718554l0-400.66112549c0-44.19115137 35.16404941-80.08419902 78.5158875-80.08419902l628.13342285 0c43.34972959 0 78.51641396 35.89287187 78.51641396 80.14216728L904.29490567 676.56596631C904.29473076 720.76027998 869.12822217 756.65332675 825.77831592 756.65332675zM576.43098682 139.73733778999997l-129.38272734 0c0 0-25.9684875-74.75724404-103.5869168-74.75724404l0-37.40883574 336.50017295 0L679.96151563 64.98009375000004C602.28564453 64.98009375000004 576.43098682 139.73733778999997 576.43098682 139.73733778999997zM484.25244893 333.62215372000003l-56.43129024-56.40581954-56.4593959 56.40581954-112.89244307 112.89999638 56.43129024 56.42742568 112.9008753-112.85695986L708.50310224 670.77139893l56.45061299-56.43006065L484.25244893 333.62215372000003z"  horiz-adv-x="1024" />

    
    <glyph glyph-name="bangding1" unicode="&#59025;" d="M356.631932 190.564429c-50.564629-45.246507-84.09428-42.508139-118.258381-8.223289l-39.131229 41.993416c-34.168194 34.265408-34.168194 89.836051 0 124.117832l167.473269 167.984922c34.168194 34.282804 89.568968 34.282804 123.733069 0l30.92329-31.014364c26.391067-26.481118 32.408107-65.659419 18.024515-97.92324l74.771961-57.229422c51.259454 51.410903 51.259454 134.768403 0 186.167027l-92.797499 93.086072c-51.246151 51.414997-134.329405 51.414997-185.586812 0l-229.343385-230.054583c-51.245128-51.398624-51.245128-134.749984 0-186.16498l92.801593-93.087095c51.242058-51.398624 134.341684-51.398624 185.600115 0l88.532359 91.556229-63.246463 60.688197L356.631932 190.564429 356.631932 190.564429zM923.4924 578.502879l-92.789313 93.086072c-51.254338 51.414997-134.340661 51.414997-185.599092 0 0 0 3.659343 0.921999-50.251497-53.157687l61.625546-59.074444 27.38572 30.224372c34.168194 34.265408 89.568968 34.265408 123.737162 0l30.931476-31.032784c34.169217-34.264385 34.169217-89.835028 0-124.117832L687.455569 277.408333c-34.168194-34.265408-89.552595-34.265408-123.719766 0l-25.473161 41.996486c-53.628408 40.08495-37.147038 49.671283-32.594349 76.731592l-68.02428 67.341734c-51.258431-51.414997-51.258431-134.76738 0-186.167027l92.789313-93.102445c51.254338-51.398624 134.340661-51.398624 185.600115 0l207.457936 208.128201C996.618884 476.654236 923.4924 578.502879 923.4924 578.502879L923.4924 578.502879zM923.4924 578.502879"  horiz-adv-x="1024" />

    
    <glyph glyph-name="xiala1" unicode="&#59023;" d="M563.789 18.061l323.316 323.39c19.954 19.951 25.862 49.702 15.086 75.771-10.777 25.998-36.144 42.888-64.223 42.888h-646.7c-28.081 0-53.459-16.96-64.229-42.888-3.546-8.618-5.285-17.659-5.285-26.627 0-18.072 7.088-35.866 20.366-49.145l323.39-323.388c13.064-13.062 30.723-20.366 49.147-20.366 18.415 0 36.147 7.365 49.145 20.366h-0.012v0.001z"  horiz-adv-x="1024" />

    
    <glyph glyph-name="law-copy" unicode="&#58971;" d="M279.977 26.513c-16.2 0-29.236 13.023-29.236 29.169 0 15.924 13.036 28.975 29.236 28.975h67.66v32.081c0 8.060 2.885 14.898 7.852 20.294l1.247 1.649c5.797 5.575 13.204 9.113 21.941 9.113h103.278v477.203c-9.736-2.273-19.031-4.951-28.13-8.89-8.542-3.704-16.812-8.253-24.827-13.442-7.684-5.603-15.341-11.802-21.748-18.641-16.589-16.143-36.424-29.363-58.394-38.489-10.929-4.549-22.301-8.474-34.759-11.164-4.578-0.847-9.293-1.444-13.676-2.276l74.898-228.9c3.994-1.442 7.934-3.702 11.209-7.227 11.151-11.206 11.151-29.806 0-40.777-14.093-14.286-31.403-26.077-50.489-34.15v0c-18.584-7.223-38.53-11.595-59.197-11.595-21.113 0-41.39 4.372-59.587 11.595l-1.693 0.82c-18.586 8.073-35.147 19.043-48.822 33.33-11.347 10.972-11.347 29.571 0 40.777 3.3 3.525 7.047 5.785 11.18 7.227l75.315 229.303c-3.91 0.624-7.436 1.025-11.18 1.872-12.401 2.689-23.996 6.616-34.732 11.164-11.207 4.148-21.747 9.945-31.070 16.368-9.929 6.423-19.028 14.064-27.296 22.121-6.601 7.243-6.601 18.641 0 24.857 6.824 7.227 18.198 7.227 24.829 0 6.629-6.216 14.090-12.623 21.747-18.017 8.072-5.174 16.283-9.932 25.023-13.649 8.903-3.522 18.225-6.435 27.934-8.488 9.349-1.859 19.252-2.901 29.626-2.901 10.099 0 20.086 1.042 29.351 2.901 9.486 2.053 19.086 4.966 28.184 8.488 17.336 7.239 33.288 18.42 46.769 31.665l0.388 0.401c8.266 8.266 16.951 15.714 26.909 22.137 9.098 6.421 19.863 11.818 30.625 16.366 11.153 4.952 22.748 8.683 34.733 10.764l6.879 1.652v55.245c0 16.144 13.425 29.406 29.543 29.406 15.952 0 29.046-13.261 29.046-29.406v-55.245l6.99-1.652c11.983-2.081 23.803-5.813 34.786-10.764 11.152-4.55 21.526-9.945 31.071-16.366 9.487-6.423 18.753-14.065 26.852-22.538 6.881-6.216 14.094-12.623 21.971-18.017 8.266-5.174 16.534-9.932 25.048-13.649 8.852-3.522 18.227-6.435 27.88-8.488 9.598-1.859 19.086-2.901 29.433-2.901 10.346 0 20.279 1.042 29.377 2.901 9.928 2.053 19.028 4.966 28.127 8.488 17.422 7.239 33.346 18.42 46.771 31.665 6.825 7.227 18.251 7.227 24.856 0 6.603-6.216 6.603-17.614 0-24.857-16.533-16.143-36.008-29.362-58.145-38.489-10.984-4.549-22.58-8.474-34.758-11.164-3.551-0.847-7.297-1.247-11.401-1.872l75.509-229.303c3.94-1.442 7.657-3.702 11.014-7.227 11.596-11.206 11.596-29.806 0-40.777-14.063-14.286-31.235-26.077-50.515-34.15-18.199-7.223-38.502-11.595-59.419-11.595-20.861 0-40.723 4.372-59.172 11.595l-1.47 0.82c-18.807 8.073-35.174 19.043-49.015 33.33-11.347 10.972-11.347 29.571 0 40.777 3.136 3.525 7.239 5.785 10.958 7.227l75.341 228.9c-4.992 0.833-9.486 1.43-14.090 2.276-12.177 2.689-23.969 6.616-34.732 11.164-11.179 4.148-21.719 9.945-31.071 16.368-9.542 6.423-19.028 14.064-26.852 22.121-7.102 6.84-14.314 13.039-22.416 18.641-7.822 5.188-16.143 9.738-24.855 13.442-8.626 3.938-18.198 6.617-28.073 8.89v0-477.203h103.471c8.461 0 16.504-3.537 21.861-9.113 5.881-5.394 9.124-13.466 9.124-21.942v-32.081h67.938c16.088 0 28.958-13.052 28.958-28.975 0-16.145-12.873-29.169-28.958-29.169h-462.961zM811.4 293.056v0l-65.411 199.286-65.135-199.286c8.212-7.448 17.309-13.248 26.853-17.796l1.277-0.209c11.347-4.756 23.993-7.239 37.005-7.239 13.481 0 25.909 2.483 37.062 7.239h0.442c9.903 4.355 19.806 10.153 27.906 18.005v0zM341.81 293.056v0l-64.966 199.286-65.412-199.286c7.877-7.448 16.975-13.248 26.962-17.796l1.223-0.209c11.123-4.756 23.772-7.239 37.227-7.239 12.815 0 25.63 2.483 36.672 7.239h0.192c10.125 4.355 19.836 10.153 28.102 18.005v0zM382.423 84.658v0h257.818v27.962c-120.004 0-133.681 0-257.818 0v-27.962z"  horiz-adv-x="1024" />

    
    <glyph glyph-name="ditulukuang" unicode="&#58944;" d="M841.59 454.641h-123.596v46.967c70.862 18.54 123.596 82.398 123.596 159.027h-123.596v41.198c0 22.659-18.54 41.198-41.198 41.198h-329.59c-22.659 0-41.198-18.54-41.198-41.198v-41.198h-123.596c0-76.63 52.734-140.489 123.596-159.027v-46.967h-123.596c0-76.63 52.734-140.489 123.596-159.027v-46.967h-123.596c0-76.63 52.734-140.487 123.596-159.027v-46.967c0-22.659 18.54-41.198 41.198-41.198h329.59c22.659 0 41.198 18.54 41.198 41.198v46.967c70.862 18.54 123.596 82.398 123.596 159.027h-123.596v46.967c70.862 18.54 123.596 82.398 123.596 159.027v0zM512 83.851c-45.731 0-82.398 37.079-82.398 82.398s36.667 82.398 82.398 82.398c45.319 0 82.398-37.079 82.398-82.398 0-45.319-36.667-82.398-82.398-82.398v0zM512 289.845c-45.731 0-82.398 37.079-82.398 82.398s36.667 82.398 82.398 82.398c45.319 0 82.398-37.079 82.398-82.398 0-45.319-36.667-82.398-82.398-82.398v0zM512 495.839c-45.731 0-82.398 37.079-82.398 82.398 0 45.729 36.667 82.398 82.398 82.398 45.319 0 82.398-36.667 82.398-82.398 0-45.319-36.667-82.398-82.398-82.398v0z"  horiz-adv-x="1024" />

    
    <glyph glyph-name="add" unicode="&#58942;" d="M866.919 416.531l-319.994-0.103v321.284c0 17.809-14.457 32.265-32.266 32.265s-32.266-14.457-32.266-32.265v-321.061l-325.066 0.172c-0.034 0-0.069 0-0.103 0-17.775 0-32.197-14.354-32.266-32.181-0.103-17.809 14.319-32.301 32.145-32.369l325.289-0.172v-321.834c0-17.842 14.457-32.265 32.266-32.265s32.266 14.423 32.266 32.265v321.628l319.736 0.103c0.069 0 0.103 0 0.121 0 17.775 0 32.197 14.354 32.265 32.181s-14.354 32.283-32.128 32.351z"  horiz-adv-x="1024" />

    
    <glyph glyph-name="jiesuan" unicode="&#58990;" d="M796.702 581.545l9.009 27.028c6.707 20.12 5.106 41.644-4.406 60.565s-25.827 33.034-45.949 39.742l-315.735 104.711c-20.222 6.706-41.744 5.205-60.565-4.406-18.919-9.509-33.034-25.827-39.742-45.949-1.102-3.304-1.401-6.607-1.201-9.81l-3.103 0.7c-20.621 5.006-41.945 1.702-60.064-9.21-18.119-11.011-30.933-28.431-35.938-48.953l-29.731-121.529c-35.237-17.819-59.463-54.358-59.463-96.402v-416.942c0-59.463 48.352-107.914 107.914-107.914h508.539c59.463 0 107.914 48.452 107.914 107.914v416.942c0 48.952-32.735 90.295-77.482 103.51zM387.468 747.321c2.403 7.307 7.508 13.113 14.314 16.617 6.908 3.404 14.716 3.905 21.823 1.502l315.735-104.711c7.207-2.403 13.113-7.508 16.617-14.314 3.404-6.807 4.004-14.615 1.502-21.823l-12.813-38.641h-27.028c2.903 18.419-0.7 37.139-10.611 53.356-11.012 18.119-28.33 30.933-48.952 35.938l-273.090 66.771c1.001 1.602 1.902 3.404 2.502 5.306zM288.363 683.953c1.802 7.408 6.407 13.714 13.014 17.719 6.506 3.905 14.314 5.106 21.623 3.304l323.042-79.083c7.408-1.802 13.714-6.407 17.719-13.014 4.004-6.506 5.106-14.215 3.304-21.623-0.4-1.802-0.7-3.604-0.7-5.406h-402.026l24.025 98.104zM823.43 60.993c0-31.533-25.628-57.161-57.161-57.161h-508.539c-31.533 0-57.161 25.628-57.161 57.161v417.042c0 31.533 25.628 57.161 57.161 57.161h508.539c31.533 0 57.161-25.628 57.161-57.161v-417.042zM578.27 399.453l-53.857-104.611c-5.205-10.211-9.41-18.619-12.413-25.327-3.003 6.908-6.707 14.716-11.513 23.525l-56.86 106.412h-46.949l78.183-143.952h-63.067v-37.54h79.785v-21.523h-79.785v-35.638h79.785v-65.769h42.245v65.769h79.384v35.638h-79.384v21.523h79.384v37.54h-63.167l77.882 143.952h-49.653z"  horiz-adv-x="1024" />

    
    <glyph glyph-name="cf-c43" unicode="&#58941;" d="M699.53 457.719c-1.293 5.172-3.879 9.052-6.468 14.226l-3.879 6.468c9.052 12.933 14.226 25.866 14.226 40.092v81.478c0 11.64-2.587 21.986-9.052 33.626l-1.293 3.879c2.588 6.468 3.879 11.64 3.879 18.107 0 65.959-142.265 100.878-275.476 100.878-133.21 0-275.476-34.92-275.476-100.878 0-6.468 1.293-12.933 3.879-18.107l-1.293-3.879c-6.468-11.64-9.052-21.986-9.052-33.626v-81.478c0-14.226 5.172-28.452 14.226-40.092l-3.879-6.468c-6.468-11.64-10.347-23.28-10.347-34.92v-81.478c0-14.227 5.172-27.159 12.933-40.092l-3.879-5.172c-6.468-11.64-10.347-23.28-10.347-34.92v-81.478c0-72.425 124.158-129.33 281.943-129.33 32.332 0 63.372 2.587 91.826 6.468-1.293 2.587-3.879 5.172-5.172 7.761 41.387-46.56 102.172-76.306 169.424-76.306 125.451 0 227.623 102.172 227.623 227.623 1.293 118.985-89.238 215.983-204.344 227.623M422.762 709.915c144.85 0 232.795-36.213 232.795-62.079s-89.238-62.079-232.795-62.079c-144.85 0-232.795 36.213-232.795 62.079 0 25.865 89.238 62.079 232.795 62.079M184.792 587.049c42.68-38.799 140.97-58.2 236.676-58.2s193.997 19.4 236.676 58.2v-67.252c0-46.56-96.998-98.291-236.676-98.291s-236.676 51.732-236.676 98.291v67.252zM187.379 431.852c43.972-42.679 133.21-69.84 237.969-69.84 24.573 0 47.852 2.588 71.132 5.172-18.108-24.573-31.040-53.027-37.505-84.065-1.293-7.761-3.879-16.812-3.879-25.866-9.052 0-19.401-1.293-28.452-1.293-139.677 0-237.969 51.732-237.969 98.291l-1.293 77.598zM424.054 114.992c-140.97 0-239.263 42.68-239.263 82.771v63.372c43.972-34.92 134.505-58.2 239.263-58.2 10.347 0 19.401 0 29.747 1.293 3.879-23.28 11.64-45.266 23.28-64.666 3.879-7.761 9.052-14.226 15.519-20.692-21.987-2.588-43.972-3.879-68.546-3.879M677.544 49.033c-53.027 0-99.585 21.986-133.21 58.2-7.761 7.761-14.227 16.812-20.692 25.865-18.108 28.452-28.452 62.079-28.452 98.291 0 0 0 1.293 0 1.293 0 10.347 1.293 20.692 2.587 31.040 1.293 9.052 3.879 18.108 6.468 27.159 21.987 64.666 78.892 112.518 148.73 121.571 7.761 1.293 15.519 1.293 23.28 1.293 2.587 0 3.879 0 6.468 0 96.998-3.879 175.89-84.065 175.89-182.357 1.293-100.878-80.186-182.357-181.064-182.357zM818.514 296.054l-23.28 23.28c-3.879 3.879-11.64 3.879-15.519 0l-126.745-126.745-65.959 65.959c-3.879 3.879-11.64 3.879-15.519 0l-23.28-23.28c-3.879-3.879-3.879-11.64 0-15.519l95.705-96.998c3.879-3.879 10.347-3.879 15.519 0l159.078 157.785c3.879 5.172 3.879 11.64 0 15.519z"  horiz-adv-x="1024" />

    
    </font>
</defs>
</svg>
